<svg xmlns="http://www.w3.org/2000/svg" width="21.354" height="20.426" viewBox="0 0 21.354 20.426">
  <g id="Group_10771" data-name="Group 10771" transform="translate(0 0)">
    <path id="Path_6947" data-name="Path 6947" d="M10.677,0A10.453,10.453,0,0,1,21.354,10.213,10.453,10.453,0,0,1,10.677,20.426,10.453,10.453,0,0,1,0,10.213,10.453,10.453,0,0,1,10.677,0Z" transform="translate(0 0)" fill="#171717"/>
    <path id="Path_293" data-name="Path 293" d="M38.815,53.425l-.17.058a14.306,14.306,0,0,1-3.616.67v.431a.7.7,0,0,1-.706.684h-.487a.7.7,0,0,1-.713-.68v-.435a14.113,14.113,0,0,1-3.876-.766A1.273,1.273,0,0,1,29,53.3H28.96V56.09a.572.572,0,0,0,.584.556h9.072a.571.571,0,0,0,.574-.563V53.29l-.131.049Z" transform="translate(-23.378 -43.576)" fill="#f3b241"/>
    <path id="Path_294" data-name="Path 294" d="M38.643,37.08h-9.96a.569.569,0,0,0-.593.54v2.421a.233.233,0,0,0,.12.168l.285.107a14.937,14.937,0,0,0,4.179.833v-.405c0-.27.445-.466.743-.466h.5c.346,0,.743.207.735.524v.338a15.161,15.161,0,0,0,3.655-.656c.359-.112.811-.289.816-.291a.212.212,0,0,0,.12-.163V37.62a.521.521,0,0,0-.177-.384A.623.623,0,0,0,38.643,37.08Z" transform="translate(-22.963 -30.895)" fill="#f3b241"/>
  </g>
</svg>