<svg xmlns="http://www.w3.org/2000/svg" width="21.73" height="20.903" viewBox="0 0 21.73 20.903">
  <g id="Group_10769" data-name="Group 10769" transform="translate(0 0)">
    <path id="Path_485" data-name="Path 485" d="M10.865,0A10.664,10.664,0,0,1,21.73,10.451a10.192,10.192,0,0,1-2.052,6.114A10.953,10.953,0,0,1,10.865,20.9,10.664,10.664,0,0,1,0,10.451,10.664,10.664,0,0,1,10.865,0Z" transform="translate(0 0)" fill="#171717"/>
    <path id="Path_290" data-name="Path 290" d="M32.748,23.41a7.224,7.224,0,1,0,7.324,7.226,7.161,7.161,0,0,0-2.14-5.115A7.356,7.356,0,0,0,32.748,23.41Zm4.229,11.882a6.359,6.359,0,0,1-3.741,1.581v-.946a.488.488,0,0,0-.977,0v.94a3.446,3.446,0,0,1-.491-.056A6.311,6.311,0,0,1,26.493,31.6c-.024-.162-.045-.32-.057-.485h.95a.482.482,0,1,0,0-.964h-.953A6.308,6.308,0,0,1,32.259,24.4v.946a.488.488,0,0,0,.977,0v-.94a6.3,6.3,0,0,1,5.832,5.748h-.959a.482.482,0,1,0,0,.964h.953A6.209,6.209,0,0,1,36.977,35.292Z" transform="translate(-21.866 -20.184)" fill="#f3b241"/>
    <path id="Path_291" data-name="Path 291" d="M43.58,39.732a.136.136,0,0,0-.175-.059L41.124,40.7a.413.413,0,0,0-.674.051l-1.245-.334a.133.133,0,0,0-.161.086.115.115,0,0,0,.012.093.129.129,0,0,0,.078.058l1.089.292.195.053a.4.4,0,0,0,.734.092.361.361,0,0,0,.045-.151l2.123-.953.2-.09A.119.119,0,0,0,43.58,39.732Z" transform="translate(-29.576 -30.721)" fill="#f3b241"/>
  </g>
</svg>