<svg id="Layer_1" data-name="Layer 1" xmlns="http://www.w3.org/2000/svg" viewBox="0 0 93 93"><defs><style>.cls-1{fill:#ffaf10;}.cls-2{fill:#070707;}</style></defs><circle class="cls-1" cx="46.5" cy="46.5" r="46.5"/><path class="cls-2" d="M73.94,27.76H26.06a1,1,0,0,0-1,1v8.37a1,1,0,0,0,1,1h3.06a6,6,0,0,0,1.62,3.17V67.23a1,1,0,0,0,1,1H68.24a1,1,0,0,0,1-1V41.32a6,6,0,0,0,1.62-3.17h3.06a1,1,0,0,0,1-1V28.77A1,1,0,0,0,73.94,27.76ZM43.36,66.21h-6.5V55.28a11.41,11.41,0,0,1,6.5,0Zm23.87,0H45.39V54.61a1,1,0,0,0-.56-.91,12.56,12.56,0,0,0-9.45,0,1,1,0,0,0-.55.91v11.6H32.77V42.69A6,6,0,0,0,40,40.47a6,6,0,0,0,10,0,6,6,0,0,0,10,0,6,6,0,0,0,7.25,2.22Zm5.7-30.09H70a1,1,0,0,0-1,1,4,4,0,0,1-7.95,0,1,1,0,1,0-2,0,4,4,0,0,1-7.94,0,1,1,0,0,0-2,0,4,4,0,0,1-7.94,0,1,1,0,1,0-2,0,4,4,0,0,1-7.95,0,1,1,0,0,0-1-1h-3V29.79H72.93Z" transform="translate(-3.5 -1.5)"/><path class="cls-2" d="M64.12,47.07H48.57a1,1,0,0,0-1,1V59.49a1,1,0,0,0,1,1H64.12a1,1,0,0,0,1-1V48.08A1,1,0,0,0,64.12,47.07Zm-1,11.41H49.59V49.1H63.11Z" transform="translate(-3.5 -1.5)"/><path class="cls-2" d="M39.17,59.63a1,1,0,0,0-1,1V61a1,1,0,1,0,2,0v-.35A1,1,0,0,0,39.17,59.63Z" transform="translate(-3.5 -1.5)"/><path class="cls-2" d="M52,52.89h8.38a1,1,0,0,0,0-2H52a1,1,0,0,0,0,2Z" transform="translate(-3.5 -1.5)"/><path class="cls-2" d="M52,56.72h8.38a1,1,0,0,0,0-2H52a1,1,0,0,0,0,2Z" transform="translate(-3.5 -1.5)"/><path class="cls-2" d="M34.93,33.91H65.07a1,1,0,1,0,0-2H34.93a1,1,0,1,0,0,2Z" transform="translate(-3.5 -1.5)"/></svg>