<svg id="Layer_1" data-name="Layer 1" xmlns="http://www.w3.org/2000/svg" viewBox="0 0 93 93"><defs><style>.cls-1{fill:#ffaf10;}</style></defs><circle class="cls-1" cx="46.5" cy="46.5" r="46.5"/><path d="M74.47,38.85h-2a1.11,1.11,0,0,1,0-2.21h2a1.11,1.11,0,1,1,0,2.21Z" transform="translate(-3.5 -1.5)"/><path d="M63.68,66.87h-21a8.44,8.44,0,0,1-8.36-7.12l-3.1-19.18a1.11,1.11,0,0,1,.43-1.06,1.12,1.12,0,0,1,1.14-.12L40,42.78a1.11,1.11,0,0,1,.62.82l2.45,15.16H63.34l4.28-26.47a1.09,1.09,0,0,1,1.09-.92H79.42a1.1,1.1,0,0,1,1.1,1.1v5.28a1.1,1.1,0,0,1-1.1,1.1h-4L72,59.75A8.44,8.44,0,0,1,63.68,66.87ZM33.79,42.29l2.76,17.1a6.24,6.24,0,0,0,6.18,5.27h21a6.24,6.24,0,0,0,6.18-5.27l3.52-21.82a1.11,1.11,0,0,1,1.09-.93h3.84V33.58H69.65L65.38,60a1.11,1.11,0,0,1-1.09.93H42.12A1.11,1.11,0,0,1,41,60l-2.5-15.51Z" transform="translate(-3.5 -1.5)"/><path d="M46.89,48.36a1.12,1.12,0,0,1-.48-.1L20.11,35.82a1.09,1.09,0,0,1-.52-1.47,1.11,1.11,0,0,1,1.47-.53l25.3,12,1.22-2.58-25.3-12a1.1,1.1,0,1,1,.94-2L49.53,41.68a1.1,1.1,0,0,1,.52,1.47l-2.16,4.58a1.13,1.13,0,0,1-.63.57A1.19,1.19,0,0,1,46.89,48.36Z" transform="translate(-3.5 -1.5)"/><path d="M42,53.44a2.29,2.29,0,0,1-1.57-.63,1.1,1.1,0,1,1,1.48-1.64c.1.09.14.12.83-.19a2.74,2.74,0,0,1,3.22.19c.1.09.13.12.83-.19a2.71,2.71,0,0,1,3.21.19c.1.09.14.12.83-.19a2.72,2.72,0,0,1,3.22.19c.1.09.14.12.83-.19a2.72,2.72,0,0,1,3.22.19c.1.09.14.12.83-.19a2.72,2.72,0,0,1,3.22.19c.1.09.14.12.83-.19a2.72,2.72,0,0,1,3.22.19,1.1,1.1,0,0,1-1.48,1.64c-.1-.09-.14-.13-.83.18a2.73,2.73,0,0,1-3.22-.18c-.1-.09-.14-.13-.83.18a2.73,2.73,0,0,1-3.22-.18c-.1-.09-.14-.13-.83.18a2.73,2.73,0,0,1-3.22-.18c-.1-.09-.13-.13-.83.18a2.73,2.73,0,0,1-3.22-.18c-.09-.09-.13-.13-.83.18a2.72,2.72,0,0,1-3.21-.18c-.1-.09-.14-.13-.83.18A4,4,0,0,1,42,53.44Z" transform="translate(-3.5 -1.5)"/></svg>