<svg id="Layer_1" data-name="Layer 1" xmlns="http://www.w3.org/2000/svg" viewBox="0 0 93 93"><defs><style>.cls-1{fill:#ffaf10;}</style></defs><circle class="cls-1" cx="46.5" cy="46.5" r="46.5"/><path d="M50,23.41A24.58,24.58,0,1,0,74.59,48,24.53,24.53,0,0,0,50,23.41ZM64.2,63.84a21.21,21.21,0,0,1-12.56,5.38V66a1.64,1.64,0,1,0-3.28,0v3.2c-.56,0-1.1-.11-1.65-.19A21.33,21.33,0,0,1,29,51.29c-.08-.55-.15-1.09-.19-1.65H32a1.64,1.64,0,0,0,0-3.28h-3.2A21.32,21.32,0,0,1,48.36,26.78V30a1.64,1.64,0,1,0,3.28,0v-3.2A21.3,21.3,0,0,1,71.22,46.36H68a1.64,1.64,0,1,0,0,3.28h3.2A21.23,21.23,0,0,1,64.2,63.84Z" transform="translate(-3.5 -1.5)"/><path d="M67.27,40.13a.82.82,0,0,0-1.09-.39L52,46.55a2.43,2.43,0,0,0-2-1,2.47,2.47,0,0,0-2.19,1.34l-7.74-2.22a.82.82,0,0,0-1,.57.81.81,0,0,0,.56,1l6.77,1.94,1.21.35A2.45,2.45,0,0,0,50,50.46a2.28,2.28,0,0,0,.7-.11,2.46,2.46,0,0,0,1.47-1.21,2.52,2.52,0,0,0,.28-1l13.2-6.33,1.24-.6A.81.81,0,0,0,67.27,40.13Z" transform="translate(-3.5 -1.5)"/></svg>