<svg id="Layer_1" data-name="Layer 1" xmlns="http://www.w3.org/2000/svg" viewBox="0 0 93 93"><defs><style>.cls-1{fill:#ffaf10;}</style></defs><circle class="cls-1" cx="46.5" cy="46.5" r="46.5"/><path d="M42.79,35.27h1.05c.52,0,.95-.24.95-.51V31.89a.63.63,0,0,1,.63-.62h9.16a.63.63,0,0,1,.63.62v2.9c0,.25.44.48.95.48h1.05c.5,0,.95-.23.95-.48v-2.9a3.58,3.58,0,0,0-3.58-3.57H45.42a3.58,3.58,0,0,0-3.58,3.57v2.82C41.84,35,42.28,35.27,42.79,35.27Z" transform="translate(-3.5 -1.5)"/><rect x="44.1" y="51.08" width="4.8" height="2.98" rx="0.95"/><rect x="44.1" y="55.71" width="4.8" height="3.33" rx="0.95"/><path d="M69.46,53.87l-.7.25A56.52,56.52,0,0,1,53.9,57v1.85A2.93,2.93,0,0,1,51,61.79H49a2.93,2.93,0,0,1-2.93-2.92V57a55.79,55.79,0,0,1-15.93-3.29c-.14,0-.4-.14-1-.39l-.08,0-.1,0v12a2.4,2.4,0,0,0,2.4,2.39H68.64A2.4,2.4,0,0,0,71,65.29v-12l-.54.21Z" transform="translate(-3.5 -1.5)"/><path d="M69.58,37.08H30.42a2.33,2.33,0,0,0-2.33,2.32V49.8a1,1,0,0,0,.47.72l1.12.46a54.4,54.4,0,0,0,16.43,3.58V52.82c0-1.16,1.75-2,2.92-2H51c1.36,0,2.92.89,2.89,2.25v1.45a55.09,55.09,0,0,0,14.37-2.82c1.41-.48,3.19-1.24,3.21-1.25a.91.91,0,0,0,.47-.7V39.4A2.33,2.33,0,0,0,69.58,37.08Z" transform="translate(-3.5 -1.5)"/></svg>