<svg id="Layer_1" data-name="Layer 1" xmlns="http://www.w3.org/2000/svg" viewBox="0 0 93 93"><defs><style>.cls-1{fill:#ffaf10;}</style></defs><circle class="cls-1" cx="46.5" cy="46.5" r="46.5"/><path d="M36.92,57.67,32,74c-.47,1.56.24,2.08,1.58,1.14l14-9.74a4.58,4.58,0,0,1,4.86,0L64.82,74l1.62,1.12c1.34.94,2,.42,1.58-1.14L63.08,57.67a4.46,4.46,0,0,1,.33-3.15A3.92,3.92,0,0,1,64.58,53L76.52,44l1.66-1.25c1.3-1,1-1.82-.6-1.85l-17.06-.35a4.61,4.61,0,0,1-3.94-2.86L51,21.55C50.44,20,49.56,20,49,21.55l-.7,2L43.42,37.67a4.55,4.55,0,0,1-2.48,2.51,4,4,0,0,1-1.46.35l-17,.35c-1.64,0-1.91.86-.6,1.85l.72.55L35.42,53A4.57,4.57,0,0,1,36.92,57.67Z" transform="translate(-3.5 -1.5)"/></svg>