<svg xmlns="http://www.w3.org/2000/svg" width="125.398" height="210.14" viewBox="0 0 125.398 210.14">
  <g id="Group_275" data-name="Group 275" transform="translate(11.7 22.297) rotate(-9)" opacity="0.25" style="mix-blend-mode: multiply;isolation: isolate">
    <path id="Path_403" data-name="Path 403" d="M41.666,19.269l-4.638,11.66,11.554,18.2L7.4,162.169l-12.2-29.961L37.55,51.825l-6.28-19.1,7.664-19.268-2.721-5.79L48.242-3.606,44.386,25.058Z" transform="translate(0.149 3.266)" fill="#22262a"/>
    <path id="Path_404" data-name="Path 404" d="M42.117,19.291,37.432,30.969,49.04,49.342,7.422,162.583-4.823,132.389,37.929,51.964l-6.3-19.237,7.742-19.3L36.644,7.592,48.769-3.638,44.848,25.129Z" transform="translate(0.176 3.099)" fill="#22262a"/>
    <path id="Path_405" data-name="Path 405" d="M42.568,19.313,37.836,31.008,49.5,49.553,7.447,163-4.84,132.571,38.308,52.1,32,32.731,39.815,13.4,37.074,7.52,49.3-3.67,45.309,25.2Z" transform="translate(0.204 2.933)" fill="#22262a"/>
    <path id="Path_406" data-name="Path 406" d="M43.019,19.336,38.24,31.049,49.953,49.766,7.471,163.409-4.856,132.755,38.687,52.244,32.358,32.736l7.9-19.356L37.5,7.447,49.823-3.7l-4.052,28.97Z" transform="translate(0.231 2.766)" fill="#22262a"/>
    <path id="Path_407" data-name="Path 407" d="M43.47,19.358,38.644,31.089,50.41,49.977,7.5,163.823-4.872,132.939,39.066,52.383,32.721,32.74,40.7,13.354,37.935,7.376,50.35-3.734,46.232,25.337Z" transform="translate(0.258 2.6)" fill="#22262a"/>
    <path id="Path_408" data-name="Path 408" d="M43.922,19.381,39.048,31.129,50.867,50.188,7.521,164.236-4.889,133.124l44.333-80.6L33.084,32.746,41.138,13.33,38.366,7.3,50.876-3.765,46.694,25.407Z" transform="translate(0.285 2.433)" fill="#22262a"/>
    <path id="Path_409" data-name="Path 409" d="M44.374,19.4,39.453,31.17,51.324,50.4,7.545,164.65-4.9,133.31,39.824,52.663,33.447,32.751l8.132-19.446L38.8,7.233,51.4-3.8,47.156,25.476Z" transform="translate(0.312 2.267)" fill="#22262a"/>
    <path id="Path_410" data-name="Path 410" d="M44.825,19.426,39.857,31.211l11.923,19.4L7.569,165.064-4.921,133.5,40.2,52.8,33.81,32.757l8.21-19.475L39.228,7.163l12.7-10.991L47.618,25.546Z" transform="translate(0.339 2.1)" fill="#22262a"/>
    <path id="Path_411" data-name="Path 411" d="M45.277,19.449l-5.016,11.8L52.238,50.817,7.594,165.477-4.938,133.684l45.52-80.742L34.174,32.763l8.288-19.5-2.8-6.166L52.459-3.86,48.08,25.615Z" transform="translate(0.366 1.933)" fill="#22262a"/>
    <path id="Path_412" data-name="Path 412" d="M45.729,19.472,40.666,31.294,52.695,51.026,7.618,165.891-4.954,133.872,40.962,53.081,34.537,32.77,42.9,13.235,40.09,7.022l12.9-10.914L48.542,25.684Z" transform="translate(0.393 1.766)" fill="#22262a"/>
    <path id="Path_413" data-name="Path 413" d="M46.18,19.5l-5.11,11.839,12.081,19.9L7.642,166.305-4.97,134.061l46.311-80.84L34.9,32.777l8.444-19.565L40.521,6.954,53.514-3.923,49,25.754Z" transform="translate(0.42 1.599)" fill="#22262a"/>
    <path id="Path_414" data-name="Path 414" d="M46.632,19.518,41.475,31.376,53.609,51.443,7.666,166.719-4.986,134.251,41.72,53.359,35.264,32.784l8.522-19.6-2.834-6.3L54.041-3.954,49.466,25.823Z" transform="translate(0.447 1.432)" fill="#22262a"/>
    <path id="Path_415" data-name="Path 415" d="M47.085,19.542l-5.2,11.876L54.066,51.65,7.691,167.133-5,134.441,42.1,53.5,35.628,32.792l8.6-19.626-2.844-6.35L54.57-3.986,49.929,25.892Z" transform="translate(0.474 1.265)" fill="#22262a"/>
    <path id="Path_416" data-name="Path 416" d="M47.537,19.565,42.285,31.46l12.238,20.4L7.715,167.547-5.019,134.632l47.5-80.994L35.992,32.8,44.67,13.143l-2.855-6.4L55.1-4.017,50.391,25.96Z" transform="translate(0.5 1.099)" fill="#22262a"/>
    <path id="Path_417" data-name="Path 417" d="M47.989,19.588,42.69,31.5,54.98,52.064,7.739,167.961-5.035,134.824,42.858,53.777l-6.5-20.969,8.757-19.687L42.248,6.68,55.626-4.048,50.854,26.03Z" transform="translate(0.527 0.931)" fill="#22262a"/>
    <path id="Path_418" data-name="Path 418" d="M48.442,19.61,43.1,31.541,55.438,52.266,7.763,168.361-5.051,135.005,43.238,53.911l-6.518-21.1L45.555,13.1,42.68,6.612,56.154-4.079,51.316,26.1Z" transform="translate(0.554 0.778)" fill="#22262a"/>
    <path id="Path_419" data-name="Path 419" d="M48.894,19.612,43.5,31.549,55.895,52.414,7.787,168.587-5.068,135.049,43.617,53.99l-6.534-21.2L46,13.061,43.111,6.537,56.682-4.106l-4.9,30.241Z" transform="translate(0.581 0.8)" fill="#22262a"/>
    <path id="Path_420" data-name="Path 420" d="M49.346,19.614,43.905,31.556l12.447,21L7.81,168.813-5.084,135.092,44,54.069,37.447,32.76l8.992-19.735-2.9-6.562,13.667-10.6L52.241,26.176Z" transform="translate(0.608 0.822)" fill="#22262a"/>
    <path id="Path_421" data-name="Path 421" d="M57.4,19.431,51.1,31.383,65.555,52.44,9.364,168.8-5.623,135l56.85-81.073L43.611,32.579l10.41-19.751L50.657,6.251,66.5-4.339,60.764,26.007Z" transform="translate(1.292 1.03)" fill="#22262a"/>
    <path id="Path_422" data-name="Path 422" d="M57.872,19.433,51.523,31.391l14.5,21.2L9.383,169.024-5.637,135.05,51.621,54.01,43.993,32.553,54.485,12.792,51.112,6.178,67.051-4.366,61.245,26.047Z" transform="translate(1.317 1.052)" fill="#22262a"/>
    <path id="Path_423" data-name="Path 423" d="M58.345,19.435,51.947,31.4,66.5,52.731,9.4,169.25-5.651,135.1,52.015,54.088,44.376,32.527l10.573-19.77L51.567,6.106,67.6-4.392,61.727,26.086Z" transform="translate(1.341 1.074)" fill="#22262a"/>
    <path id="Path_424" data-name="Path 424" d="M58.817,19.437,52.371,31.406l14.6,21.469L9.422,169.476-5.665,135.145,52.409,54.167,44.759,32.5,55.413,12.722,52.022,6.034,68.156-4.419,62.208,26.125Z" transform="translate(1.366 1.096)" fill="#22262a"/>
    <path id="Path_425" data-name="Path 425" d="M59.29,19.439l-6.5,11.975L67.442,53.019,9.442,169.7-5.68,135.193,52.8,54.245,45.141,32.476,55.876,12.687l-3.4-6.725L68.709-4.445,62.69,26.164Z" transform="translate(1.391 1.117)" fill="#22262a"/>
    <path id="Path_426" data-name="Path 426" d="M59.763,19.442l-6.545,11.98,14.7,21.741L9.461,169.93-5.694,135.243,53.2,54.323,45.523,32.451l10.817-19.8L52.931,5.891,69.261-4.471,63.172,26.2Z" transform="translate(1.416 1.139)" fill="#22262a"/>
    <path id="Path_427" data-name="Path 427" d="M60.235,19.445,53.641,31.431,68.384,53.307l-58.9,116.85L-5.708,135.293,53.591,54.4,45.906,32.428,56.8,12.619l-3.418-6.8L69.813-4.5l-6.16,30.74Z" transform="translate(1.441 1.16)" fill="#22262a"/>
    <path id="Path_428" data-name="Path 428" d="M60.708,19.447,54.064,31.44,68.856,53.449,9.5,170.383-5.722,135.344,53.985,54.479,46.288,32.4,57.267,12.585,53.84,5.75,70.366-4.523l-6.231,30.8Z" transform="translate(1.466 1.182)" fill="#22262a"/>
    <path id="Path_429" data-name="Path 429" d="M61.186,19.446l-6.693,12L69.334,53.587,9.527,170.606l-15.26-35.211L54.384,54.554l-7.71-22.176,11.061-19.83L54.3,5.678,70.923-4.553l-6.3,30.869Z" transform="translate(1.486 1.207)" fill="#22262a"/>
    <path id="Path_430" data-name="Path 430" d="M61.669,19.442,54.926,31.448,69.82,53.719,9.56,170.824l-15.3-35.382L54.79,54.623,47.066,32.348l11.142-19.84L54.762,5.6,71.486-4.586,65.115,26.347Z" transform="translate(1.5 1.235)" fill="#22262a"/>
    <path id="Path_431" data-name="Path 431" d="M62.152,19.438,55.36,31.45l14.946,22.4L9.592,171.042-5.744,135.491,55.2,54.694,47.457,32.32,58.681,12.469l-3.456-6.94L72.048-4.619l-6.44,31Z" transform="translate(1.514 1.264)" fill="#22262a"/>
    <path id="Path_432" data-name="Path 432" d="M62.635,19.433,55.794,31.452l15,22.529L9.626,171.26-5.75,135.54,55.6,54.763,47.849,32.291,59.154,12.429,55.688,5.454,72.611-4.652,66.1,26.408Z" transform="translate(1.528 1.292)" fill="#22262a"/>
    <path id="Path_433" data-name="Path 433" d="M63.118,19.43,56.227,31.455l15.05,22.657L9.658,171.478-5.756,135.59,56.008,54.833,48.24,32.263,59.627,12.39,56.151,5.38,73.174-4.685l-6.58,31.124Z" transform="translate(1.543 1.321)" fill="#22262a"/>
    <path id="Path_434" data-name="Path 434" d="M63.6,19.425l-6.94,12.032,15.1,22.785L9.691,171.7-5.762,135.641,56.414,54.9,48.632,32.235,60.1,12.352,56.614,5.307,73.736-4.717,67.087,26.47Z" transform="translate(1.557 1.349)" fill="#22262a"/>
    <path id="Path_435" data-name="Path 435" d="M64.084,19.421,57.094,31.46,72.249,54.371,9.724,171.915-5.769,135.693,56.82,54.972l-7.8-22.764,11.55-19.895-3.5-7.079L74.3-4.75,67.58,26.5Z" transform="translate(1.571 1.378)" fill="#22262a"/>
    <path id="Path_436" data-name="Path 436" d="M64.567,19.418,57.528,31.463,72.734,54.5,9.757,172.133-5.775,135.746l63-80.7-7.811-22.86L61.046,12.275,57.54,5.162,74.861-4.783,68.073,26.531Z" transform="translate(1.586 1.406)" fill="#22262a"/>
    <path id="Path_437" data-name="Path 437" d="M65.05,19.413,57.962,31.466,73.22,54.629,9.79,172.352-5.781,135.8,57.631,55.11,49.805,32.154,61.519,12.237,58,5.09,75.424-4.816,68.566,26.561Z" transform="translate(1.6 1.434)" fill="#22262a"/>
    <path id="Path_438" data-name="Path 438" d="M65.533,19.41,58.4,31.47,73.706,54.757,9.823,172.57l-15.61-36.717L58.037,55.179,50.2,32.128,61.992,12.2,58.466,5.018,75.986-4.848,69.059,26.591Z" transform="translate(1.614 1.463)" fill="#22262a"/>
    <path id="Path_439" data-name="Path 439" d="M66.016,19.406,58.829,31.473,74.192,54.884,9.856,172.788-5.793,135.908,58.443,55.249,50.588,32.1l11.877-19.94L58.928,4.947,76.549-4.881l-7,31.5Z" transform="translate(1.629 1.491)" fill="#22262a"/>
    <path id="Path_440" data-name="Path 440" d="M66.5,19.4,59.262,31.476,74.678,55.011l-64.789,118L-5.8,135.965,58.849,55.318l-7.87-23.242L62.938,12.124,59.391,4.876l17.72-9.79L70.045,26.651Z" transform="translate(1.643 1.519)" fill="#22262a"/>
    <path id="Path_441" data-name="Path 441" d="M66.982,19.4,59.7,31.48,75.164,55.138,9.922,173.226l-15.728-37.2L59.255,55.387,51.37,32.051l12.04-19.964L59.854,4.805l17.82-9.751L70.538,26.681Z" transform="translate(1.657 1.547)" fill="#22262a"/>
    <path id="Path_442" data-name="Path 442" d="M67.465,19.4,60.13,31.483l15.521,23.78L9.956,173.443-5.812,136.079,59.661,55.456l-7.9-23.43L63.883,12.05,60.317,4.736l17.92-9.714-7.2,31.689Z" transform="translate(1.672 1.576)" fill="#22262a"/>
    <path id="Path_443" data-name="Path 443" d="M67.948,19.392,60.563,31.487l15.574,23.9L9.989,173.658-5.818,136.134l65.886-80.61L52.153,32l12.2-19.987L60.779,4.666,78.8-5.011,71.525,26.74Z" transform="translate(1.686 1.609)" fill="#22262a"/>
    <path id="Path_444" data-name="Path 444" d="M68.432,19.388,61,31.49,76.624,55.512l-66.6,118.361L-5.825,136.189l66.3-80.6-7.93-23.614,12.285-20L61.243,4.6l18.12-9.64L72.019,26.769Z" transform="translate(1.701 1.641)" fill="#22262a"/>
    <path id="Path_467" data-name="Path 467" d="M.008.027,11.17-.1l-.029.52L-.02.547Z" transform="translate(64.474 15.156) rotate(-11)" fill="#22262a"/>
    <path id="Path_6979" data-name="Path 6979" d="M.134.127,7.982-.322,7.374,8.4l-7.848.449Z" transform="translate(37.357 48.957) rotate(9)" fill="#22262a"/>
  </g>
  <path id="Path_401" data-name="Path 401" d="M72.817,22.1l-7.96,13.368L81.291,62.3,20.213,190.161-6.671,151.093,64.156,62.228,55.885,35.922,69.04,13.831,65.278,5.6,84.561-4.93,76.578,30.33Z" transform="translate(8.207 20.621) rotate(-10)" fill="#22262a" stroke="rgba(0,0,0,0)" stroke-width="1"/>
</svg>