<svg xmlns="http://www.w3.org/2000/svg" width="203.624" height="57.064" viewBox="0 0 203.624 57.064">
  <g id="OptimalPandaWordPress_PandaWordLogo" transform="translate(-10.949 0)">
    <g id="Group_2" data-name="Group 2" transform="translate(13.48 0)">
      <path id="Path_145" data-name="Path 145" d="M81.08,40.248v.737l-.25-.118V40.13Z" transform="translate(-24.234 -3.995)"/>
      <path id="Path_146" data-name="Path 146" d="M81.08,40.985l-.25-.118V40.13l.25.118Z" transform="translate(-24.234 -3.995)"/>
      <path id="Path_147" data-name="Path 147" d="M80.709,41l-.259-.118h.339l.25.118Z" transform="translate(-24.193 -4.003)"/>
      <path id="Path_148" data-name="Path 148" d="M81.039,41h-.33l-.259-.118h.339Z" transform="translate(-24.193 -4.003)"/>
      <path id="Path_149" data-name="Path 149" d="M80.689,56.356l-.259-.118.018-15.358.259.118Z" transform="translate(-24.191 -3.678)"/>
      <path id="Path_150" data-name="Path 150" d="M80.709,40.258l-.259-.118.339-.01.25.118Z" transform="translate(-24.193 -4.004)"/>
      <path id="Path_151" data-name="Path 151" d="M81.039,40.248l-.33.01-.259-.118.339-.01Z" transform="translate(-24.193 -4.004)"/>
      <path id="Path_152" data-name="Path 152" d="M81.1,22.7v.737l-.25-.118V22.58Z" transform="translate(-24.236 -4.022)"/>
      <path id="Path_153" data-name="Path 153" d="M81.1,23.435l-.25-.118V22.58l.25.118Z" transform="translate(-24.236 -4.022)"/>
      <path id="Path_154" data-name="Path 154" d="M80.729,23.458l-.259-.118.339-.01.25.118Z" transform="translate(-24.195 -4.025)"/>
      <path id="Path_155" data-name="Path 155" d="M81.059,23.448l-.33.01-.259-.118.339-.01Z" transform="translate(-24.195 -4.025)"/>
      <path id="Path_156" data-name="Path 156" d="M80.709,39.976l-.259-.118.018-16.518.259.118Z" transform="translate(-24.193 -3.872)"/>
      <path id="Path_157" data-name="Path 157" d="M80.73,22.7l-.25-.118h.33l.25.118Z" transform="translate(-24.196 -4.026)"/>
      <path id="Path_158" data-name="Path 158" d="M81.06,22.7h-.33l-.25-.118h.33Z" transform="translate(-24.196 -4.026)"/>
      <path id="Path_159" data-name="Path 159" d="M82.532,4.17,82.47,58.626l-.25-.12L82.282,4.05Z" transform="translate(-24.383 -4.05)"/>
      <path id="Path_160" data-name="Path 160" d="M81.979,58.153l-.259-.12L81.783,4.55l.25.12Z" transform="translate(-24.329 -4.058)"/>
      <path id="Path_161" data-name="Path 161" d="M60.1,56.768v.364l-.259-.118V56.65Z" transform="translate(-21.981 -3.942)"/>
      <path id="Path_162" data-name="Path 162" d="M60.1,56.765l-.259-.118L78.22,56.5l.259.118Z" transform="translate(-21.981 -3.939)"/>
      <path id="Path_163" data-name="Path 163" d="M60.1,57.132l-.259-.118V56.65l.259.118Z" transform="translate(-21.981 -3.942)"/>
      <path id="Path_164" data-name="Path 164" d="M81.492,5.16,81.43,57.473l-.25-.12L81.243,5.04Z" transform="translate(-24.271 -4.067)"/>
      <path id="Path_165" data-name="Path 165" d="M59.359,57.148,59.1,57.03l.661-.01.259.118Z" transform="translate(-21.902 -3.948)"/>
      <path id="Path_166" data-name="Path 166" d="M60.019,57.138l-.661.01L59.1,57.03l.661-.01Z" transform="translate(-21.902 -3.948)"/>
      <path id="Path_167" data-name="Path 167" d="M59.359,56.768v.374l-.259-.118V56.65Z" transform="translate(-21.902 -3.942)"/>
      <path id="Path_168" data-name="Path 168" d="M39.78,56.915l-.25-.118L57,56.65l.259.118Z" transform="translate(-19.802 -3.942)"/>
      <path id="Path_169" data-name="Path 169" d="M59.359,57.142l-.259-.118V56.65l.259.118Z" transform="translate(-21.902 -3.942)"/>
      <path id="Path_170" data-name="Path 170" d="M80.73,22.417l-.25-.118L80.5,5.79l.25.118Z" transform="translate(-24.196 -4.079)"/>
      <path id="Path_171" data-name="Path 171" d="M78.5,41l-18.38.147-.259-.118,18.38-.147Z" transform="translate(-21.983 -4.001)"/>
      <path id="Path_172" data-name="Path 172" d="M60.117,41.148,60.1,56.506l-.259-.118.018-15.358Z" transform="translate(-21.981 -3.68)"/>
      <path id="Path_173" data-name="Path 173" d="M60.12,40.405l-.25-.118,18.372-.147.259.118Z" transform="translate(-21.984 -4.002)"/>
      <path id="Path_174" data-name="Path 174" d="M59.379,41.158l-.259-.118.661-.01.259.118Z" transform="translate(-21.904 -4.003)"/>
      <path id="Path_175" data-name="Path 175" d="M60.039,41.148l-.661.01-.259-.118.661-.01Z" transform="translate(-21.904 -4.003)"/>
      <path id="Path_176" data-name="Path 176" d="M59.359,56.506l-.259-.118.018-15.348.259.118Z" transform="translate(-21.902 -3.68)"/>
      <path id="Path_177" data-name="Path 177" d="M59.38,40.408l-.25-.118h.661l.25.118Z" transform="translate(-21.905 -4.004)"/>
      <path id="Path_178" data-name="Path 178" d="M60.041,40.408H59.38l-.25-.118h.661Z" transform="translate(-21.905 -4.004)"/>
      <path id="Path_179" data-name="Path 179" d="M78.52,23.458l-18.38.147-.25-.118,18.372-.147Z" transform="translate(-21.986 -4.024)"/>
      <path id="Path_180" data-name="Path 180" d="M60.138,23.608,60.12,40.126l-.25-.118.018-16.518Z" transform="translate(-21.984 -3.87)"/>
      <path id="Path_181" data-name="Path 181" d="M60.14,22.845l-.25-.118,18.38-.147.25.118Z" transform="translate(-21.986 -4.025)"/>
      <path id="Path_182" data-name="Path 182" d="M59.4,23.608l-.25-.118h.661l.25.118Z" transform="translate(-21.907 -4.025)"/>
      <path id="Path_183" data-name="Path 183" d="M60.061,23.608H59.4l-.25-.118h.661Z" transform="translate(-21.907 -4.025)"/>
      <path id="Path_184" data-name="Path 184" d="M57.3,23.608l-17.47.147-.259-.118,17.479-.147Z" transform="translate(-19.806 -4.024)"/>
      <path id="Path_185" data-name="Path 185" d="M59.38,40.126l-.25-.118.018-16.518.25.118Z" transform="translate(-21.905 -3.87)"/>
      <path id="Path_186" data-name="Path 186" d="M59.4,22.858l-.25-.118.661-.01.25.118Z" transform="translate(-21.907 -4.026)"/>
      <path id="Path_187" data-name="Path 187" d="M60.061,22.848l-.661.01-.25-.118.661-.01Z" transform="translate(-21.907 -4.026)"/>
      <path id="Path_188" data-name="Path 188" d="M39.78,56.918v.364l-.25-.118V56.8Z" transform="translate(-19.802 -3.945)"/>
      <path id="Path_189" data-name="Path 189" d="M39.78,57.282l-.25-.118V56.8l.25.118Z" transform="translate(-19.802 -3.945)"/>
      <path id="Path_190" data-name="Path 190" d="M39.049,57.3l-.259-.118.661-.01.25.118Z" transform="translate(-19.722 -3.951)"/>
      <path id="Path_191" data-name="Path 191" d="M39.7,57.288l-.652.01-.259-.118.661-.01Z" transform="translate(-19.722 -3.951)"/>
      <path id="Path_192" data-name="Path 192" d="M39.049,56.918v.374l-.259-.118V56.8Z" transform="translate(-19.722 -3.945)"/>
      <path id="Path_193" data-name="Path 193" d="M19.47,57.056l-.25-.108L36.69,56.8l.259.118Z" transform="translate(-17.622 -3.945)"/>
      <path id="Path_194" data-name="Path 194" d="M39.049,57.292l-.259-.118V56.8l.259.118Z" transform="translate(-19.722 -3.945)"/>
      <path id="Path_195" data-name="Path 195" d="M78.54,5.908l-18.38.147-.25-.118L78.29,5.79Z" transform="translate(-21.989 -4.079)"/>
      <path id="Path_196" data-name="Path 196" d="M60.158,6.058,60.14,22.567l-.25-.118L59.908,5.94Z" transform="translate(-21.986 -4.082)"/>
      <path id="Path_197" data-name="Path 197" d="M60.16,5.688v.364l-.25-.118V5.58Z" transform="translate(-21.989 -4.076)"/>
      <path id="Path_198" data-name="Path 198" d="M60.16,6.052l-.25-.118V5.58l.25.108Z" transform="translate(-21.989 -4.076)"/>
      <path id="Path_199" data-name="Path 199" d="M59.4,22.577l-.25-.118L59.168,5.95l.25.118Z" transform="translate(-21.907 -4.082)"/>
      <path id="Path_200" data-name="Path 200" d="M59.42,5.7v.364l-.25-.118V5.58Z" transform="translate(-21.909 -4.076)"/>
      <path id="Path_201" data-name="Path 201" d="M59.42,5.7l-.25-.118h.661l.25.108Z" transform="translate(-21.909 -4.076)"/>
      <path id="Path_202" data-name="Path 202" d="M59.42,6.062l-.25-.118V5.58l.25.118Z" transform="translate(-21.909 -4.076)"/>
      <path id="Path_203" data-name="Path 203" d="M60.081,5.688l-.661.01-.25-.118h.661Z" transform="translate(-21.909 -4.076)"/>
      <path id="Path_204" data-name="Path 204" d="M57.279,41.158l-17.47.138-.259-.118,17.47-.138Z" transform="translate(-19.804 -4.001)"/>
      <path id="Path_205" data-name="Path 205" d="M39.807,41.3,39.78,56.656l-.25-.118.018-15.358Z" transform="translate(-19.802 -3.683)"/>
      <path id="Path_206" data-name="Path 206" d="M39.809,40.555l-.259-.118,17.479-.147.25.118Z" transform="translate(-19.804 -4.002)"/>
      <path id="Path_207" data-name="Path 207" d="M39.06,41.308l-.25-.118.661-.01.259.118Z" transform="translate(-19.724 -4.002)"/>
      <path id="Path_208" data-name="Path 208" d="M39.729,41.3l-.67.01-.25-.118.661-.01Z" transform="translate(-19.724 -4.002)"/>
      <path id="Path_209" data-name="Path 209" d="M39.049,56.656l-.259-.118.018-15.348.25.118Z" transform="translate(-19.722 -3.683)"/>
      <path id="Path_210" data-name="Path 210" d="M39.069,40.558l-.259-.118h.661l.259.118Z" transform="translate(-19.724 -4.004)"/>
      <path id="Path_211" data-name="Path 211" d="M39.729,40.558h-.661l-.259-.118h.661Z" transform="translate(-19.724 -4.004)"/>
      <path id="Path_212" data-name="Path 212" d="M39.827,23.758l-.018,16.518-.259-.118.018-16.518Z" transform="translate(-19.804 -3.869)"/>
      <path id="Path_213" data-name="Path 213" d="M39.829,23l-.259-.118,17.479-.138.25.118Z" transform="translate(-19.806 -4.025)"/>
      <path id="Path_214" data-name="Path 214" d="M39.089,23.758l-.259-.118h.661l.259.118Z" transform="translate(-19.726 -4.025)"/>
      <path id="Path_215" data-name="Path 215" d="M39.749,23.758h-.661l-.259-.118h.661Z" transform="translate(-19.726 -4.025)"/>
      <path id="Path_216" data-name="Path 216" d="M39.069,40.276l-.259-.118.018-16.518.259.118Z" transform="translate(-19.724 -3.869)"/>
      <path id="Path_217" data-name="Path 217" d="M39.09,23.008l-.25-.118.652-.01.259.118Z" transform="translate(-19.728 -4.026)"/>
      <path id="Path_218" data-name="Path 218" d="M39.751,23l-.661.01-.25-.118.652-.01Z" transform="translate(-19.728 -4.026)"/>
      <path id="Path_219" data-name="Path 219" d="M74.7,57.358,18.72,57.82l-.25-.118,55.98-.462Z" transform="translate(-17.542 -3.952)"/>
      <path id="Path_220" data-name="Path 220" d="M18.18,58.52l-.25-.118,56.945-.462.259.118Z" transform="translate(-17.484 -3.964)"/>
      <path id="Path_221" data-name="Path 221" d="M75.517,58.548,17.68,59.02l-.25-.118,57.837-.472Z" transform="translate(-17.43 -3.972)"/>
      <path id="Path_222" data-name="Path 222" d="M39.847,6.208l-.018,16.509L39.57,22.6,39.588,6.09Z" transform="translate(-19.806 -4.084)"/>
      <path id="Path_223" data-name="Path 223" d="M57.319,6.068l-17.47.138-.259-.118L57.069,5.95Z" transform="translate(-19.808 -4.082)"/>
      <path id="Path_224" data-name="Path 224" d="M39.849,5.838V6.2l-.259-.118L39.6,5.72Z" transform="translate(-19.808 -4.078)"/>
      <path id="Path_225" data-name="Path 225" d="M39.849,6.2l-.259-.118L39.6,5.72l.25.118Z" transform="translate(-19.808 -4.078)"/>
      <path id="Path_226" data-name="Path 226" d="M39.09,22.727l-.25-.118L38.858,6.1l.25.118Z" transform="translate(-19.728 -4.084)"/>
      <path id="Path_227" data-name="Path 227" d="M39.11,5.848l-.25-.118.661-.01.25.118Z" transform="translate(-19.73 -4.078)"/>
      <path id="Path_228" data-name="Path 228" d="M39.771,5.838l-.661.01-.25-.118.661-.01Z" transform="translate(-19.73 -4.078)"/>
      <path id="Path_229" data-name="Path 229" d="M39.11,5.848v.364l-.25-.118V5.73Z" transform="translate(-19.73 -4.078)"/>
      <path id="Path_230" data-name="Path 230" d="M39.11,6.212l-.25-.118V5.73l.25.118Z" transform="translate(-19.73 -4.078)"/>
      <path id="Path_231" data-name="Path 231" d="M36.96,41.308l-17.47.138-.25-.118,17.47-.138Z" transform="translate(-17.624 -4.001)"/>
      <path id="Path_232" data-name="Path 232" d="M19.488,41.448,19.47,56.8l-.25-.108.018-15.358Z" transform="translate(-17.622 -3.685)"/>
      <path id="Path_233" data-name="Path 233" d="M19.49,40.7l-.25-.108,17.47-.147.259.118Z" transform="translate(-17.624 -4.002)"/>
      <path id="Path_234" data-name="Path 234" d="M19.119,41.448l-.259-.108.339-.01.25.118Z" transform="translate(-17.583 -4.002)"/>
      <path id="Path_235" data-name="Path 235" d="M19.449,41.448h-.33l-.259-.108.339-.01Z" transform="translate(-17.583 -4.002)"/>
      <path id="Path_236" data-name="Path 236" d="M19.119,40.708l-.259-.118H19.2l.25.108Z" transform="translate(-17.583 -4.003)"/>
      <path id="Path_237" data-name="Path 237" d="M19.119,40.708v.728l-.259-.108V40.59Z" transform="translate(-17.583 -3.994)"/>
      <path id="Path_238" data-name="Path 238" d="M19.119,41.436l-.259-.108V40.59l.259.118Z" transform="translate(-17.583 -3.994)"/>
      <path id="Path_239" data-name="Path 239" d="M19.449,40.7l-.33.01-.259-.118H19.2Z" transform="translate(-17.583 -4.003)"/>
      <path id="Path_240" data-name="Path 240" d="M36.989,23.758l-17.479.147-.25-.118,17.47-.147Z" transform="translate(-17.626 -4.024)"/>
      <path id="Path_241" data-name="Path 241" d="M19.508,23.908,19.49,40.417l-.25-.108.018-16.518Z" transform="translate(-17.624 -3.868)"/>
      <path id="Path_242" data-name="Path 242" d="M19.519,23.146l-.259-.118,17.479-.138.25.118Z" transform="translate(-17.626 -4.025)"/>
      <path id="Path_243" data-name="Path 243" d="M19.14,23.908l-.25-.118h.33l.25.118Z" transform="translate(-17.587 -4.025)"/>
      <path id="Path_244" data-name="Path 244" d="M19.47,23.908h-.33l-.25-.118h.33Z" transform="translate(-17.587 -4.025)"/>
      <path id="Path_245" data-name="Path 245" d="M19.14,23.148V23.9l-.25-.118V23.04Z" transform="translate(-17.587 -4.021)"/>
      <path id="Path_246" data-name="Path 246" d="M19.14,23.9l-.25-.118V23.04l.25.108Z" transform="translate(-17.587 -4.021)"/>
      <path id="Path_247" data-name="Path 247" d="M19.14,23.148l-.25-.108.33-.01.259.118Z" transform="translate(-17.587 -4.026)"/>
      <path id="Path_248" data-name="Path 248" d="M19.479,23.148H19.14l-.25-.108.33-.01Z" transform="translate(-17.587 -4.026)"/>
      <path id="Path_249" data-name="Path 249" d="M19.537,6.358l-.018,16.509-.259-.118L19.278,6.24Z" transform="translate(-17.626 -4.087)"/>
      <path id="Path_250" data-name="Path 250" d="M37.009,6.218l-17.47.138-.259-.118L36.759,6.1Z" transform="translate(-17.629 -4.084)"/>
      <path id="Path_251" data-name="Path 251" d="M18.72,57.943l-.25-.12L18.532,5.5l.25.12Z" transform="translate(-17.542 -4.074)"/>
      <path id="Path_252" data-name="Path 252" d="M18.79,5.61l-.25-.118,55.98-.452.25.118Z" transform="translate(-17.549 -4.067)"/>
      <path id="Path_253" data-name="Path 253" d="M75.193,4.668,18.249,5.13l-.259-.118L74.944,4.55Z" transform="translate(-17.49 -4.058)"/>
      <path id="Path_254" data-name="Path 254" d="M18.242,5.14,18.18,58.623l-.25-.12L17.984,5.02Z" transform="translate(-17.484 -4.066)"/>
      <path id="Path_255" data-name="Path 255" d="M17.749,4.64l-.259-.118L75.336,4.05l.25.118Z" transform="translate(-17.436 -4.05)"/>
      <path id="Path_256" data-name="Path 256" d="M17.68,59.106l-.25-.12L17.484,4.53l.259.12Z" transform="translate(-17.43 -4.058)"/>
    </g>
    <path id="Path_257" data-name="Path 257" d="M62.42,31.49s.518-7.679,8.231-4.5,5.222,16.715-.687,13.549Z" transform="translate(-8.778 -3.9)" fill="#1a1a1a"/>
    <path id="Path_258" data-name="Path 258" d="M71.606,41.588a4.209,4.209,0,0,1-1.946-.521.564.564,0,0,1-.161-.138l-7.516-9.036a.68.68,0,0,1-.143-.452,8.547,8.547,0,0,1,.812-2.881,4.891,4.891,0,0,1,4.6-2.95,9.524,9.524,0,0,1,3.571.816,8.011,8.011,0,0,1,4.374,4.415,10.633,10.633,0,0,1,.678,5.811C75.373,39.651,73.686,41.588,71.606,41.588Zm-1.384-1.563a3.049,3.049,0,0,0,1.384.364c1.848,0,2.857-2.124,3.151-3.933A7.984,7.984,0,0,0,70.4,27.606a8.507,8.507,0,0,0-3.187-.737,3.809,3.809,0,0,0-3.624,2.291,7.013,7.013,0,0,0-.661,2.173Z" transform="translate(-8.715 -3.889)" fill="#1a1a1a"/>
    <path id="Path_259" data-name="Path 259" d="M36.2,31.49s-.509-7.679-8.24-4.5-5.213,16.715.7,13.549Z" transform="translate(-4.561 -3.9)" fill="#1a1a1a"/>
    <path id="Path_260" data-name="Path 260" d="M26.884,41.588h0c-2.08,0-3.74-1.966-4.231-4.916a10.623,10.623,0,0,1,.67-5.811,8.056,8.056,0,0,1,4.383-4.415,9.491,9.491,0,0,1,3.571-.816,4.891,4.891,0,0,1,4.6,2.95,8.455,8.455,0,0,1,.8,2.881.638.638,0,0,1-.143.452l-7.543,9.036a.564.564,0,0,1-.161.138A4.236,4.236,0,0,1,26.884,41.588Zm4.392-14.749a8.506,8.506,0,0,0-3.187.737,8.045,8.045,0,0,0-4.365,8.849c.3,1.819,1.3,3.933,3.16,3.933h0a2.974,2.974,0,0,0,1.419-.334l7.3-8.741a7.278,7.278,0,0,0-.661-2.173,3.813,3.813,0,0,0-3.669-2.291Z" transform="translate(-4.495 -3.89)" fill="#1a1a1a"/>
    <path id="Path_261" data-name="Path 261" d="M69.438,57.642S71.723,28.39,47.451,29c-24.263-.59-21.978,28.661-21.978,28.661" transform="translate(-4.807 -3.478)" fill="#fff"/>
    <path id="Path_262" data-name="Path 262" d="M69.372,58.231h-.054a.6.6,0,0,1-.491-.659,41.246,41.246,0,0,0-.366-7.866c-.562-4.021-1.991-9.7-5.615-13.942s-8.838-6.371-15.444-6.2h0c-6.606-.167-11.8,1.966-15.452,6.2s-5.079,9.941-5.642,14a40.371,40.371,0,0,0-.357,7.807.589.589,0,0,1-.5.654.565.565,0,0,1-.594-.546,41.246,41.246,0,0,1,.366-8.1,35.674,35.674,0,0,1,1.785-7.394,23.592,23.592,0,0,1,4.1-7.227c3.865-4.533,9.338-6.755,16.256-6.588,6.927-.167,12.4,2.055,16.265,6.588a23.526,23.526,0,0,1,4.1,7.237,36,36,0,0,1,1.785,7.384,41.244,41.244,0,0,1,.366,8.1A.582.582,0,0,1,69.372,58.231Z" transform="translate(-4.741 -3.468)" fill="#1a1a1a"/>
    <path id="Path_263" data-name="Path 263" d="M55.247,45.192a9.324,9.324,0,0,1,2.116,5.516c.071,2.33,3.865,4.5,5.276,2.891s2.294-6.745.786-9.144-3.017-3.933-6.329-3.854C54.033,40.679,54.756,44.435,55.247,45.192Z" transform="translate(-7.96 -3.673)" fill="#1a1a1a"/>
    <path id="Path_264" data-name="Path 264" d="M43.832,45.192a9.24,9.24,0,0,0-2.116,5.516c-.071,2.33-3.865,4.5-5.276,2.891s-2.294-6.745-.794-9.144,3.026-3.933,6.338-3.854C45.046,40.679,44.323,44.435,43.832,45.192Z" transform="translate(-5.821 -3.673)" fill="#1a1a1a"/>
    <path id="Path_265" data-name="Path 265" d="M54.123,47.754c0,1.455-2.044,3.589-4.571,3.589S45,49.21,45,47.754s2.044-2.084,4.562-2.084S54.123,46.309,54.123,47.754Z" transform="translate(-6.908 -3.946)" fill="#1a1a1a"/>
    <path id="Path_266" data-name="Path 266" d="M54.121,53.384a1.631,1.631,0,0,1-.205.3,3.436,3.436,0,0,1-.232.285l-.125.138-.125.128-.134.128-.143.118-.152.108-.143.108-.161.1-.161.1-.17.079-.179.079-.179.059-.2.049h-.187a.73.73,0,0,1-.205,0h-.616l-.2-.059-.205-.079-.054-.059H50.22l-.089-.049-.089-.059-.089-.069-.08-.069-.161-.138a.564.564,0,0,1-.071-.079l-.071-.079a2.961,2.961,0,0,1-.259-.334,1.069,1.069,0,0,1-.116-.167l-.107-.177h.937l-.107.177a1.069,1.069,0,0,1-.116.167,2.961,2.961,0,0,1-.259.334l-.071.079a.566.566,0,0,1-.071.079l-.161.138-.08.069-.089.069-.089.059-.089.059h-.143l-.205.079-.2.059H47.274l-.187-.049-.179-.059-.125-.039-.17-.079-.161-.1-.161-.1-.152-.108L46,54.475l-.143-.118-.134-.128-.134-.128-.161-.118a3.535,3.535,0,0,1-.241-.285,3.493,3.493,0,0,1-.205-.3l.616.315.152.069.152.069.3.128h.3a1.181,1.181,0,0,1,.3.088h1.232l.116-.049.107-.059h.259l.089-.1h0l.045-.059a2.174,2.174,0,0,0,.17-.236.6.6,0,0,0,.08-.128l.08-.128h0a.532.532,0,0,1,.777-.177.726.726,0,0,1,.161.177l.071.128.08.128c.062.079.116.167.179.236v.059h.054l.089.1h.259l.107.059.116.049h1.232l.3-.079.152-.049h.152l.3-.128.152-.069.152-.069Z" transform="translate(-6.906 -3.881)" fill="#1a1a1a"/>
    <path id="Path_267" data-name="Path 267" d="M49.489,53.331l.545-3.491.553,3.491a.659.659,0,0,1-.093.459.55.55,0,0,1-.362.249.57.57,0,0,1-.643-.5A.8.8,0,0,1,49.489,53.331Z" transform="translate(-7.389 -3.828)" fill="#1a1a1a"/>
    <path id="Path_268" data-name="Path 268" d="M82.762,58.137c2.053-10.6-3.169-9.616-3.169-9.616-2.134-2.763-4.24-1.111-4.24-1.111a3.036,3.036,0,0,0-2.593-.5,3.345,3.345,0,0,0-2.093,1.758c-4.7-.777-2.026,9.469-2.026,9.469" transform="translate(-9.364 -3.777)" fill="#1a1a1a"/>
    <path id="Path_269" data-name="Path 269" d="M82.695,58.726h-.116A.62.62,0,0,1,82.2,58c.982-5.064.241-7.217-.553-8.122A2.2,2.2,0,0,0,79.7,49.11.543.543,0,0,1,79.2,48.9a2.879,2.879,0,0,0-2.473-1.386,2.15,2.15,0,0,0-1.035.364.506.506,0,0,1-.625.089,2.819,2.819,0,0,0-2.366-.442,3.087,3.087,0,0,0-1.634,1.426.55.55,0,0,1-.562.315,1.427,1.427,0,0,0-1.5.462c-1.277,1.593-.375,6.489.08,8.24a.621.621,0,0,1-.375.747.557.557,0,0,1-.678-.413,29.726,29.726,0,0,1-.652-3.677c-.3-2.733,0-4.651.8-5.693a2.383,2.383,0,0,1,2.125-.9,4.038,4.038,0,0,1,2.08-1.7,3.617,3.617,0,0,1,2.937.383,3.2,3.2,0,0,1,1.285-.393,3.732,3.732,0,0,1,3.2,1.573,3.288,3.288,0,0,1,2.607,1.15c1.419,1.632,1.7,4.729.83,9.2A.559.559,0,0,1,82.695,58.726Z" transform="translate(-9.297 -3.766)" fill="#1a1a1a"/>
    <path id="Path_270" data-name="Path 270" d="M72,56.467c0-1.268,1.785-3.127,3.972-3.127s3.972,1.858,3.972,3.127-1.785,1.809-3.972,1.809S72,57.725,72,56.467Z" transform="translate(-9.806 -3.887)" fill="#fff"/>
    <path id="Path_271" data-name="Path 271" d="M65.6,58.487H5.937a.389.389,0,0,1,0-.777H65.6a.389.389,0,0,1,0,.777Z" transform="translate(7.911 -3.527)" fill="#1a1a1a"/>
    <ellipse id="Ellipse_9" data-name="Ellipse 9" cx="1.589" cy="1.75" rx="1.589" ry="1.75" transform="translate(48.366 39.147)"/>
    <ellipse id="Ellipse_10" data-name="Ellipse 10" cx="0.42" cy="0.462" rx="0.42" ry="0.462" transform="translate(49.991 39.634)" fill="#fff"/>
    <ellipse id="Ellipse_11" data-name="Ellipse 11" cx="1.589" cy="1.75" rx="1.589" ry="1.75" transform="translate(33.753 39.147)"/>
    <ellipse id="Ellipse_12" data-name="Ellipse 12" cx="0.42" cy="0.462" rx="0.42" ry="0.462" transform="translate(35.387 39.634)" fill="#fff"/>
    <path id="Path_272" data-name="Path 272" d="M30.023,53.02s2.071,5.427-2.3,5.427a3.406,3.406,0,0,1-2.137,1.715,3.11,3.11,0,0,1-2.6-.516s-2.107,1.563-4.24-1.062c0,0-5,1.426-3.187-6.293S29.3,48,30.023,53.02Z" transform="translate(-3.706 -3.793)" fill="#1a1a1a"/>
    <path id="Path_273" data-name="Path 273" d="M24.883,60.827a4.288,4.288,0,0,1-1.955-.511,3.3,3.3,0,0,1-1.544.383,3.893,3.893,0,0,1-2.857-1.465,4.061,4.061,0,0,1-.661.049,2.938,2.938,0,0,1-2.544-1.239c-.848-1.2-.955-3.2-.321-5.9a6.182,6.182,0,0,1,2.553-3.864,7.357,7.357,0,0,1,4.1-1.131,11.184,11.184,0,0,1,5.7,1.622,6.3,6.3,0,0,1,3.187,4.1c.17.462,1.044,3.107,0,4.818a2.979,2.979,0,0,1-2.553,1.367,3.743,3.743,0,0,1-3.071,1.789Zm-1.964-1.79a.481.481,0,0,1,.25.069,3.515,3.515,0,0,0,1.714.521h0a2.787,2.787,0,0,0,2.3-1.485.538.538,0,0,1,.473-.3A2.072,2.072,0,0,0,29.588,57c.652-1.072.125-3.078-.134-3.756a.617.617,0,0,1,0-.138,5.074,5.074,0,0,0-2.678-3.3,10.189,10.189,0,0,0-5.169-1.475c-1.732,0-4.758.531-5.588,4.1-.536,2.311-.5,3.992.125,4.916a1.909,1.909,0,0,0,1.678.777,2.81,2.81,0,0,0,.714-.089.513.513,0,0,1,.545.177,3.022,3.022,0,0,0,2.3,1.327,2.226,2.226,0,0,0,1.232-.364A.5.5,0,0,1,22.919,59.037Z" transform="translate(-3.646 -3.783)" fill="#1a1a1a"/>
    <ellipse id="Ellipse_13" data-name="Ellipse 13" cx="0.911" cy="1.141" rx="0.911" ry="1.141" transform="translate(63.105 45.128)" fill="#fff"/>
    <ellipse id="Ellipse_14" data-name="Ellipse 14" cx="0.911" cy="1.141" rx="0.911" ry="1.141" transform="translate(66.711 45.128)" fill="#fff"/>
    <ellipse id="Ellipse_15" data-name="Ellipse 15" cx="0.911" cy="1.141" rx="0.911" ry="1.141" transform="translate(69.853 47.536)" fill="#fff"/>
    <ellipse id="Ellipse_16" data-name="Ellipse 16" cx="0.911" cy="1.141" rx="0.911" ry="1.141" transform="translate(60.007 47.536)" fill="#fff"/>
    <path id="Path_274" data-name="Path 274" d="M19.76,70.671c0-5.766,1.564-7.381,7.643-7.381h3.458c6.013,0,7.621,1.653,7.621,7.381V92.814c0,5.766-1.608,7.4-7.621,7.4H27.4c-6.079,0-7.643-1.672-7.643-7.4Zm11.983.788c0-2.037-.176-2.653-2.2-2.653h-.881c-1.982,0-2.2.615-2.2,2.653V92.045c0,1.922.176,2.653,2.2,2.653h.947c1.96,0,2.2-.634,2.2-2.653Z" transform="translate(59.897 -63.29)"/>
    <path id="Path_275" data-name="Path 275" d="M29.91,63.42h10.9c6.013,0,7.577,1.672,7.577,7.381v8.534c0,5.766-1.564,7.381-7.577,7.381h-4.1V99.825H29.91Zm9.6,17.78c1.96,0,2.2-.673,2.2-2.653V71.589c0-1.922-.242-2.653-2.2-2.653h-2.8V81.2Z" transform="translate(72.105 -63.17)"/>
    <path id="Path_276" data-name="Path 276" d="M43.215,99.825V68.879H38.81V63.42H54.427v5.459H50.022V99.825Z" transform="translate(82.809 -63.17)"/>
    <path id="Path_277" data-name="Path 277" d="M46.88,63.42h6.608V99.825H46.88Z" transform="translate(92.735 -63.17)"/>
    <path id="Path_278" data-name="Path 278" d="M67.175,99.825H61.58L58.5,80.6c-.308-1.922-.727-5-1.079-7.439,0,2.345.11,5.247.11,7.439V99.825H51.69V63.42h9.956l2.379,17.3c.242,1.768.419,3.844.595,5.766.132-2.037.242-4.056.485-5.766l2.379-17.3H77.792V99.825H71.184V80.6c0-2.191,0-5,.132-7.343C70.9,75.7,70.589,78.682,70.3,80.6Z" transform="translate(98.52 -63.17)"/>
    <path id="Path_279" data-name="Path 279" d="M77.131,94.674H71.36l-.7,5.151H64.62L70.061,63.42H79.29l5.353,36.405H78.035ZM72.2,89.522h4.273v-1.1c-.9-8.111-1.608-14.762-1.96-20.394-.419,5.632-1.079,12.282-1.982,20.394Z" transform="translate(114.071 -63.17)"/>
    <path id="Path_280" data-name="Path 280" d="M74.85,63.42h6.74V94.309H88.2v5.517H74.982Z" transform="translate(126.375 -63.17)"/>
    <path id="Path_281" data-name="Path 281" d="M30.76,96.894V85.1h9.56v1.072H32.528v4.24h7.539v1.072H32.528v4.362H40.32v1.048Z" transform="translate(48.897 -42.68)"/>
    <path id="Path_282" data-name="Path 282" d="M47.12,96.894l-4.906-5.02-4.978,5.02H35.18L41.1,90.875,35.5,85.1h2.056l4.653,4.63L46.8,85.1H48.96l-5.628,5.775,5.952,6.019Z" transform="translate(60.422 -42.68)"/>
    <path id="Path_283" data-name="Path 283" d="M44.464,96.894V86.172h-4V85.1H50.2v1.072H46.232V96.894Z" transform="translate(74.189 -42.68)"/>
    <path id="Path_284" data-name="Path 284" d="M45,96.894V85.1h9.56v1.072h-7.9v4.24h7.575v1.072H46.659v4.362h7.828v1.048Z" transform="translate(86.026 -42.68)"/>
    <path id="Path_285" data-name="Path 285" d="M59.179,96.894l-5.916-5.336h1.7c3.1,0,4.942-1.072,4.942-2.68,0-1.121-1.01-2.7-5.05-2.7H51.532V96.894H49.8V85.1h5.267c4.545,0,6.565,1.828,6.565,3.826-.018,1.945-2.317,3.529-5.195,3.582l4.906,4.386Z" transform="translate(98.542 -42.68)"/>
    <path id="Path_286" data-name="Path 286" d="M55.12,96.894V85.1h1.732V96.894Z" transform="translate(112.413 -42.68)"/>
    <path id="Path_287" data-name="Path 287" d="M66.638,97.211c-4.971-.08-8.916-2.853-8.837-6.211s4.152-6.045,9.124-6.019,8.983,2.756,8.984,6.114C75.83,94.508,71.691,97.238,66.638,97.211Zm0-11.16c-4.115.013-7.438,2.273-7.431,5.052s3.34,5.031,7.455,5.036,7.459-2.24,7.479-5.02c-.1-2.759-3.417-4.97-7.5-5Z" transform="translate(119.4 -42.852)"/>
    <path id="Path_288" data-name="Path 288" d="M74.285,96.894l-5.952-5.336h1.7c3.1,0,4.942-1.072,4.942-2.68,0-1.121-1.01-2.7-5.014-2.7H66.6V96.894H64.87V85.1h5.267c4.545,0,6.6,1.828,6.6,3.826-.018,1.945-2.316,3.529-5.195,3.582l4.906,4.386Z" transform="translate(137.835 -42.68)"/>
  </g>
</svg>