<svg id="Layer_1" data-name="Layer 1" xmlns="http://www.w3.org/2000/svg" viewBox="0 0 91.42 38.5"><defs><style>.cls-1{fill:#ffaf10;}.cls-2{isolation:isolate;}.cls-3{fill:#1a1a1a;}.cls-4{fill:#fff;}</style></defs><circle class="cls-1" cx="19.25" cy="19.25" r="19.25"/><g class="cls-2"><polygon points="28.44 17.24 28.44 17.47 28.36 17.43 28.36 17.21 28.44 17.24"/><polygon points="28.44 17.47 28.36 17.43 28.36 17.21 28.44 17.24 28.44 17.47"/><polygon points="28.33 17.47 28.25 17.43 28.36 17.43 28.44 17.47 28.33 17.47"/><polygon points="28.44 17.47 28.33 17.47 28.25 17.43 28.36 17.43 28.44 17.47"/><polygon points="28.32 22.08 28.24 22.05 28.25 17.43 28.33 17.47 28.32 22.08"/><polygon points="28.33 17.25 28.25 17.21 28.36 17.21 28.44 17.24 28.33 17.25"/><polygon points="28.44 17.24 28.33 17.25 28.25 17.21 28.36 17.21 28.44 17.24"/><polygon points="28.45 12.06 28.45 12.28 28.36 12.25 28.36 12.02 28.45 12.06"/><polygon points="28.45 12.28 28.36 12.25 28.36 12.02 28.45 12.06 28.45 12.28"/><polygon points="28.34 12.28 28.25 12.25 28.36 12.25 28.45 12.28 28.34 12.28"/><polygon points="28.45 12.28 28.34 12.28 28.25 12.25 28.36 12.25 28.45 12.28"/><polygon points="28.33 17.25 28.25 17.21 28.25 12.25 28.34 12.28 28.33 17.25"/><polygon points="28.34 12.06 28.25 12.02 28.36 12.02 28.45 12.06 28.34 12.06"/><polygon points="28.45 12.06 28.34 12.06 28.25 12.02 28.36 12.02 28.45 12.06"/><polygon points="28.87 6.59 28.85 22.65 28.77 22.61 28.79 6.55 28.87 6.59"/><polygon points="28.71 22.5 28.62 22.47 28.64 6.7 28.72 6.73 28.71 22.5"/><polygon points="22.24 22.12 22.24 22.23 22.16 22.2 22.16 22.09 22.24 22.12"/><polygon points="22.24 22.12 22.16 22.09 28.24 22.05 28.32 22.08 22.24 22.12"/><polygon points="22.24 22.23 22.16 22.2 22.16 22.09 22.24 22.12 22.24 22.23"/><polygon points="28.56 6.88 28.54 22.3 28.46 22.26 28.48 6.84 28.56 6.88"/><polygon points="22.02 22.24 21.94 22.2 22.16 22.2 22.24 22.23 22.02 22.24"/><polygon points="22.24 22.23 22.02 22.24 21.94 22.2 22.16 22.2 22.24 22.23"/><polygon points="22.02 22.12 22.02 22.24 21.94 22.2 21.94 22.09 22.02 22.12"/><polygon points="16.24 22.17 16.16 22.13 21.94 22.09 22.02 22.12 16.24 22.17"/><polygon points="22.02 22.24 21.94 22.2 21.94 22.09 22.02 22.12 22.02 22.24"/><polygon points="28.34 12.06 28.25 12.02 28.26 7.06 28.34 7.1 28.34 12.06"/><polygon points="28.33 17.47 22.25 17.51 22.16 17.48 28.25 17.43 28.33 17.47"/><polygon points="22.25 17.51 22.24 22.12 22.16 22.09 22.16 17.48 22.25 17.51"/><polygon points="22.25 17.29 22.16 17.26 28.25 17.21 28.33 17.25 22.25 17.29"/><polygon points="22.03 17.51 21.94 17.48 22.16 17.48 22.25 17.51 22.03 17.51"/><polygon points="22.25 17.51 22.03 17.51 21.94 17.48 22.16 17.48 22.25 17.51"/><polygon points="22.02 22.12 21.94 22.09 21.94 17.48 22.03 17.51 22.02 22.12"/><polygon points="22.03 17.29 21.95 17.26 22.16 17.26 22.25 17.29 22.03 17.29"/><polygon points="22.25 17.29 22.03 17.29 21.95 17.26 22.16 17.26 22.25 17.29"/><polygon points="28.34 12.28 22.25 12.33 22.17 12.29 28.25 12.25 28.34 12.28"/><polygon points="22.25 12.33 22.25 17.29 22.16 17.26 22.17 12.29 22.25 12.33"/><polygon points="22.25 12.1 22.17 12.07 28.25 12.02 28.34 12.06 22.25 12.1"/><polygon points="22.04 12.33 21.95 12.29 22.17 12.29 22.25 12.33 22.04 12.33"/><polygon points="22.25 12.33 22.04 12.33 21.95 12.29 22.17 12.29 22.25 12.33"/><polygon points="22.04 12.33 16.25 12.37 16.17 12.34 21.95 12.29 22.04 12.33"/><polygon points="22.03 17.29 21.95 17.26 21.95 12.29 22.04 12.33 22.03 17.29"/><polygon points="22.04 12.11 21.95 12.07 22.17 12.07 22.25 12.1 22.04 12.11"/><polygon points="22.25 12.1 22.04 12.11 21.95 12.07 22.17 12.07 22.25 12.1"/><polygon points="16.24 22.17 16.24 22.28 16.16 22.24 16.16 22.13 16.24 22.17"/><polygon points="16.24 22.28 16.16 22.24 16.16 22.13 16.24 22.17 16.24 22.28"/><polygon points="16.02 22.28 15.94 22.25 16.16 22.24 16.24 22.28 16.02 22.28"/><polygon points="16.24 22.28 16.02 22.28 15.94 22.25 16.16 22.24 16.24 22.28"/><polygon points="16.02 22.17 16.02 22.28 15.94 22.25 15.94 22.13 16.02 22.17"/><polygon points="10.24 22.21 10.16 22.18 15.94 22.13 16.02 22.17 10.24 22.21"/><polygon points="16.02 22.28 15.94 22.25 15.94 22.13 16.02 22.17 16.02 22.28"/><polygon points="28.34 7.1 22.26 7.14 22.18 7.11 28.26 7.06 28.34 7.1"/><polygon points="22.26 7.14 22.25 12.1 22.17 12.07 22.18 7.11 22.26 7.14"/><polygon points="22.26 7.04 22.26 7.14 22.18 7.11 22.18 7 22.26 7.04"/><polygon points="22.26 7.14 22.18 7.11 22.18 7 22.26 7.04 22.26 7.14"/><polygon points="22.04 12.11 21.95 12.07 21.96 7.11 22.04 7.15 22.04 12.11"/><polygon points="22.04 7.04 22.04 7.15 21.96 7.11 21.96 7 22.04 7.04"/><polygon points="22.04 7.04 21.96 7 22.18 7 22.26 7.04 22.04 7.04"/><polygon points="22.04 7.15 21.96 7.11 21.96 7 22.04 7.04 22.04 7.15"/><polygon points="22.26 7.04 22.04 7.04 21.96 7 22.18 7 22.26 7.04"/><polygon points="22.03 17.51 16.25 17.55 16.16 17.52 21.94 17.48 22.03 17.51"/><polygon points="16.25 17.55 16.24 22.17 16.16 22.13 16.16 17.52 16.25 17.55"/><polygon points="16.25 17.34 16.16 17.3 21.95 17.26 22.03 17.29 16.25 17.34"/><polygon points="16.03 17.56 15.94 17.52 16.16 17.52 16.25 17.55 16.03 17.56"/><polygon points="16.25 17.55 16.03 17.56 15.94 17.52 16.16 17.52 16.25 17.55"/><polygon points="16.02 22.17 15.94 22.13 15.94 17.52 16.03 17.56 16.02 22.17"/><polygon points="16.03 17.34 15.94 17.3 16.16 17.3 16.25 17.34 16.03 17.34"/><polygon points="16.25 17.34 16.03 17.34 15.94 17.3 16.16 17.3 16.25 17.34"/><polygon points="16.25 12.37 16.25 17.34 16.16 17.3 16.17 12.34 16.25 12.37"/><polygon points="16.25 12.15 16.17 12.11 21.95 12.07 22.04 12.11 16.25 12.15"/><polygon points="16.04 12.37 15.95 12.34 16.17 12.34 16.25 12.37 16.04 12.37"/><polygon points="16.25 12.37 16.04 12.37 15.95 12.34 16.17 12.34 16.25 12.37"/><polygon points="16.03 17.34 15.94 17.3 15.95 12.34 16.04 12.37 16.03 17.34"/><polygon points="16.04 12.15 15.95 12.12 16.17 12.11 16.25 12.15 16.04 12.15"/><polygon points="16.25 12.15 16.04 12.15 15.95 12.12 16.17 12.11 16.25 12.15"/><polygon points="28.54 22.3 10.02 22.43 9.94 22.4 28.46 22.26 28.54 22.3"/><polygon points="9.86 22.64 9.78 22.61 28.62 22.47 28.71 22.5 9.86 22.64"/><polygon points="28.85 22.65 9.71 22.79 9.63 22.76 28.77 22.61 28.85 22.65"/><polygon points="16.26 7.19 16.25 12.15 16.17 12.11 16.18 7.15 16.26 7.19"/><polygon points="22.04 7.15 16.26 7.19 16.18 7.15 21.96 7.11 22.04 7.15"/><polygon points="16.26 7.08 16.26 7.19 16.18 7.15 16.18 7.04 16.26 7.08"/><polygon points="16.26 7.19 16.18 7.15 16.18 7.04 16.26 7.08 16.26 7.19"/><polygon points="16.04 12.15 15.95 12.12 15.96 7.16 16.04 7.19 16.04 12.15"/><polygon points="16.04 7.08 15.96 7.05 16.18 7.04 16.26 7.08 16.04 7.08"/><polygon points="16.26 7.08 16.04 7.08 15.96 7.05 16.18 7.04 16.26 7.08"/><polygon points="16.04 7.08 16.04 7.19 15.96 7.16 15.96 7.05 16.04 7.08"/><polygon points="16.04 7.19 15.96 7.16 15.96 7.05 16.04 7.08 16.04 7.19"/><polygon points="16.03 17.56 10.25 17.6 10.16 17.56 15.94 17.52 16.03 17.56"/><polygon points="10.25 17.6 10.24 22.21 10.16 22.18 10.16 17.56 10.25 17.6"/><polygon points="10.25 17.38 10.16 17.34 15.94 17.3 16.03 17.34 10.25 17.38"/><polygon points="10.14 17.6 10.05 17.56 10.16 17.56 10.25 17.6 10.14 17.6"/><polygon points="10.25 17.6 10.14 17.6 10.05 17.56 10.16 17.56 10.25 17.6"/><polygon points="10.14 17.38 10.05 17.34 10.16 17.34 10.25 17.38 10.14 17.38"/><polygon points="10.14 17.38 10.14 17.6 10.05 17.56 10.05 17.34 10.14 17.38"/><polygon points="10.14 17.6 10.05 17.56 10.05 17.34 10.14 17.38 10.14 17.6"/><polygon points="10.25 17.38 10.14 17.38 10.05 17.34 10.16 17.34 10.25 17.38"/><polygon points="16.04 12.37 10.25 12.42 10.17 12.38 15.95 12.34 16.04 12.37"/><polygon points="10.25 12.42 10.25 17.38 10.16 17.34 10.17 12.38 10.25 12.42"/><polygon points="10.26 12.19 10.17 12.16 15.95 12.12 16.04 12.15 10.26 12.19"/><polygon points="10.14 12.42 10.06 12.38 10.17 12.38 10.25 12.42 10.14 12.42"/><polygon points="10.25 12.42 10.14 12.42 10.06 12.38 10.17 12.38 10.25 12.42"/><polygon points="10.14 12.19 10.14 12.42 10.06 12.38 10.06 12.16 10.14 12.19"/><polygon points="10.14 12.42 10.06 12.38 10.06 12.16 10.14 12.19 10.14 12.42"/><polygon points="10.14 12.19 10.06 12.16 10.17 12.16 10.26 12.19 10.14 12.19"/><polygon points="10.26 12.19 10.14 12.19 10.06 12.16 10.17 12.16 10.26 12.19"/><polygon points="10.26 7.23 10.26 12.19 10.17 12.16 10.18 7.2 10.26 7.23"/><polygon points="16.04 7.19 10.26 7.23 10.18 7.2 15.96 7.16 16.04 7.19"/><polygon points="10.02 22.43 9.94 22.4 9.96 6.98 10.04 7.01 10.02 22.43"/><polygon points="10.04 7.01 9.96 6.98 28.48 6.84 28.56 6.88 10.04 7.01"/><polygon points="28.72 6.73 9.88 6.87 9.79 6.84 28.64 6.7 28.72 6.73"/><polygon points="9.88 6.87 9.86 22.64 9.78 22.61 9.79 6.84 9.88 6.87"/><polygon points="9.73 6.73 9.65 6.69 28.79 6.55 28.87 6.59 9.73 6.73"/><polygon points="9.71 22.79 9.63 22.76 9.65 6.69 9.73 6.73 9.71 22.79"/></g><path class="cls-3" d="M27.16,43.43s.17-2.3,2.73-1.34,1.72,5-.23,4.06Z" transform="translate(-4.24 -28.75)"/><path class="cls-3" d="M30.22,46.47a1.38,1.38,0,0,1-.64-.16l-.06,0L27,43.56a.18.18,0,0,1,0-.14,2.24,2.24,0,0,1,.26-.86,1.63,1.63,0,0,1,1.52-.89,3.53,3.53,0,0,1,1.19.25,2.56,2.56,0,0,1,1.45,1.33A2.88,2.88,0,0,1,31.62,45C31.46,45.89,30.91,46.47,30.22,46.47ZM29.76,46a1.18,1.18,0,0,0,.46.11c.61,0,.94-.64,1-1.19a2.35,2.35,0,0,0-1.44-2.67A3.29,3.29,0,0,0,28.76,42a1.29,1.29,0,0,0-1.2.69,2.13,2.13,0,0,0-.22.65Z" transform="translate(-4.24 -28.75)"/><path class="cls-3" d="M19.88,43.43s-.17-2.3-2.73-1.34-1.73,5,.23,4.06Z" transform="translate(-4.24 -28.75)"/><path class="cls-3" d="M16.82,46.47h0c-.69,0-1.24-.58-1.4-1.48a2.92,2.92,0,0,1,.22-1.75,2.57,2.57,0,0,1,1.45-1.33,3.49,3.49,0,0,1,1.18-.24,1.65,1.65,0,0,1,1.53.88,2.31,2.31,0,0,1,.26.87.17.17,0,0,1,0,.13l-2.49,2.72-.06,0A1.44,1.44,0,0,1,16.82,46.47ZM18.27,42a3.19,3.19,0,0,0-1.05.22,2.36,2.36,0,0,0-1.45,2.67c.1.55.43,1.19,1.05,1.19h0a1.1,1.1,0,0,0,.45-.11l2.42-2.63a2.13,2.13,0,0,0-.22-.65A1.28,1.28,0,0,0,18.27,42Z" transform="translate(-4.24 -28.75)"/><path class="cls-4" d="M30.8,51.28s.75-8.79-7.28-8.61c-8-.18-7.27,8.61-7.27,8.61" transform="translate(-4.24 -28.75)"/><path class="cls-3" d="M30.8,51.46h0a.18.18,0,0,1-.16-.2,11.56,11.56,0,0,0-.12-2.36,8,8,0,0,0-1.86-4.19,6.51,6.51,0,0,0-5.11-1.86h0a6.49,6.49,0,0,0-5.12,1.87,7.82,7.82,0,0,0-1.85,4.19,10.67,10.67,0,0,0-.12,2.35.19.19,0,0,1-.17.2.18.18,0,0,1-.19-.17,10.66,10.66,0,0,1,.12-2.43,9.89,9.89,0,0,1,.59-2.22,7,7,0,0,1,1.36-2.17,6.81,6.81,0,0,1,5.38-2,6.85,6.85,0,0,1,5.39,2,7,7,0,0,1,1.35,2.17,10.45,10.45,0,0,1,.6,2.22A11.39,11.39,0,0,1,31,51.29.18.18,0,0,1,30.8,51.46Z" transform="translate(-4.24 -28.75)"/><path class="cls-3" d="M25.06,47.48a2.65,2.65,0,0,1,.7,1.65c0,.7,1.28,1.36,1.74.87a2.74,2.74,0,0,0,.26-2.74,2.18,2.18,0,0,0-2.09-1.16C24.65,46.12,24.89,47.25,25.06,47.48Z" transform="translate(-4.24 -28.75)"/><path class="cls-3" d="M22,47.48a2.59,2.59,0,0,0-.7,1.65c0,.7-1.28,1.36-1.75.87a2.74,2.74,0,0,1-.26-2.74,2.19,2.19,0,0,1,2.1-1.16C22.39,46.12,22.15,47.25,22,47.48Z" transform="translate(-4.24 -28.75)"/><path class="cls-3" d="M25,48.22c0,.44-.67,1.08-1.51,1.08S22,48.66,22,48.22s.68-.62,1.51-.62S25,47.79,25,48.22Z" transform="translate(-4.24 -28.75)"/><path class="cls-3" d="M25,49.88,25,50l-.07.08,0,0-.05,0,0,0-.05,0-.05,0-.05,0-.05,0,0,0-.06,0-.06,0h-.06l-.06,0h-.33l-.07,0-.06,0h-.07l0,0h0l0,0,0,0-.05-.05,0,0,0,0-.09-.1,0-.06,0-.05h.31l0,.05,0,.06-.09.1,0,0,0,0,0,.05,0,0,0,0h0l0,0h-.06l-.07,0-.06,0h-.33l-.06,0h-.06l-.06,0-.06,0-.05,0,0,0-.05,0-.05,0-.05,0,0,0-.05,0,0,0a.6.6,0,0,1-.08-.08L22,49.88l.2.09.05,0,.05,0,.1,0h.1l.1,0H23l0,0,0,0h.09l0,0,0,0h0l0,0,.06-.07a.08.08,0,0,1,0,0l0,0h0a.19.19,0,0,1,.26-.05l.05.05,0,0,0,0,.06.07v0h0l0,0v0H24l0,0h0l0,0h.13s0,0,0,0h.19l.1,0,0,0h.05l.1,0,.05,0,0,0Z" transform="translate(-4.24 -28.75)"/><path class="cls-3" d="M23.34,49.88l.18-1.05.18,1.05a.18.18,0,0,1-.15.21.18.18,0,0,1-.21-.15Z" transform="translate(-4.24 -28.75)"/><path class="cls-3" d="M33.7,51.34c.68-3.19-1-2.89-1-2.89a1,1,0,0,0-1.4-.34,1.09,1.09,0,0,0-1.57.38c-1.55-.23-.67,2.85-.67,2.85" transform="translate(-4.24 -28.75)"/><path class="cls-3" d="M33.7,51.52h0a.18.18,0,0,1-.14-.21c.32-1.52.08-2.17-.18-2.44a.75.75,0,0,0-.65-.23.19.19,0,0,1-.17-.07,1,1,0,0,0-.81-.41.71.71,0,0,0-.35.11.19.19,0,0,1-.19,0,1,1,0,0,0-.79-.13,1.07,1.07,0,0,0-.54.44.15.15,0,0,1-.18.09.54.54,0,0,0-.5.14c-.42.48-.12,1.95,0,2.48a.18.18,0,0,1-.12.22.18.18,0,0,1-.23-.12,7.08,7.08,0,0,1-.22-1.1,2.21,2.21,0,0,1,.27-1.71.79.79,0,0,1,.7-.27,1.27,1.27,0,0,1,.69-.51,1.3,1.3,0,0,1,1,.11,1.18,1.18,0,0,1,.43-.12,1.27,1.27,0,0,1,1,.48,1.13,1.13,0,0,1,.87.34c.47.49.56,1.42.27,2.77A.17.17,0,0,1,33.7,51.52Z" transform="translate(-4.24 -28.75)"/><path class="cls-4" d="M30,50.8c0-.38.59-.94,1.31-.94s1.32.56,1.32.94-.59.55-1.32.55S30,51.18,30,50.8Z" transform="translate(-4.24 -28.75)"/><path class="cls-3" d="M36.46,51.52H10.53a.17.17,0,0,1-.18-.18.18.18,0,0,1,.18-.19H36.46a.18.18,0,0,1,.18.19A.18.18,0,0,1,36.46,51.52Z" transform="translate(-4.24 -28.75)"/><circle cx="21.7" cy="18.62" r="0.53"/><circle class="cls-4" cx="21.85" cy="18.39" r="0.14"/><circle cx="16.86" cy="18.62" r="0.53"/><circle class="cls-4" cx="17.02" cy="18.39" r="0.14"/><path class="cls-3" d="M18.12,49.79s.68,1.63-.76,1.63a1.11,1.11,0,0,1-1.57.36,1.08,1.08,0,0,1-1.41-.31s-1.65.42-1.05-1.9S17.87,48.27,18.12,49.79Z" transform="translate(-4.24 -28.75)"/><path class="cls-3" d="M16.44,52.14a1.57,1.57,0,0,1-.65-.15,1.17,1.17,0,0,1-.51.11,1.35,1.35,0,0,1-1-.44H14.1a1,1,0,0,1-.84-.37,2.09,2.09,0,0,1-.1-1.78A1.83,1.83,0,0,1,14,48.36,2.66,2.66,0,0,1,15.36,48a4,4,0,0,1,1.88.49,1.93,1.93,0,0,1,1.06,1.23,1.81,1.81,0,0,1,0,1.45,1,1,0,0,1-.84.41,1.28,1.28,0,0,1-1,.54Zm-.65-.54.08,0a1.18,1.18,0,0,0,.57.16h0a.94.94,0,0,0,.76-.44.18.18,0,0,1,.16-.1A.69.69,0,0,0,18,51c.22-.32,0-.92,0-1.13,0,0,0,0,0,0a1.6,1.6,0,0,0-.88-1,3.62,3.62,0,0,0-1.71-.44,1.74,1.74,0,0,0-1.85,1.23,1.81,1.81,0,0,0,0,1.46.65.65,0,0,0,.56.23,1.35,1.35,0,0,0,.24,0,.18.18,0,0,1,.18.05,1,1,0,0,0,.76.4.82.82,0,0,0,.41-.11A.17.17,0,0,1,15.79,51.6Z" transform="translate(-4.24 -28.75)"/><ellipse class="cls-4" cx="26.35" cy="20.21" rx="0.3" ry="0.34"/><ellipse class="cls-4" cx="27.55" cy="20.21" rx="0.3" ry="0.34"/><ellipse class="cls-4" cx="28.58" cy="20.88" rx="0.3" ry="0.34"/><ellipse class="cls-4" cx="25.33" cy="20.88" rx="0.3" ry="0.34"/><path d="M14.56,53.93c0-.88.2-1.13,1-1.13H16c.81,0,1,.26,1,1.13v3.41c0,.88-.22,1.14-1,1.14h-.46c-.82,0-1-.26-1-1.14Zm1.6.13c0-.32,0-.41-.28-.41h-.13c-.26,0-.29.09-.29.41v3.16c0,.31,0,.41.29.41h.13c.26,0,.28-.1.28-.41Z" transform="translate(-4.24 -28.75)"/><path d="M17.56,52.84H19c.8,0,1,.26,1,1.13v1.31c0,.88-.2,1.14-1,1.14h-.56v2h-.9Zm1.28,2.73c.27,0,.3-.1.3-.41V54.09c0-.31,0-.4-.3-.4h-.38v1.88Z" transform="translate(-4.24 -28.75)"/><path d="M20.78,58.43V53.68h-.6v-.84h2.1v.84h-.6v4.75Z" transform="translate(-4.24 -28.75)"/><path d="M22.57,52.84h.9v5.59h-.9Z" transform="translate(-4.24 -28.75)"/><path d="M26.07,58.43h-.75l-.42-2.94c0-.31-.1-.77-.14-1.15,0,.36,0,.81,0,1.15v2.94H24V52.84h1.33l.32,2.67c0,.27.06.58.08.89,0-.31,0-.62.06-.89l.32-2.67h1.38v5.59H26.6V55.49c0-.34,0-.77,0-1.13-.06.37-.1.83-.14,1.13Z" transform="translate(-4.24 -28.75)"/><path d="M29.49,57.64h-.78l-.09.79h-.81l.73-5.59h1.24l.72,5.59h-.91Zm-.66-.8h.55v-.16c-.12-1.25-.22-2.27-.26-3.14-.06.87-.15,1.89-.27,3.14Z" transform="translate(-4.24 -28.75)"/><path d="M30.83,52.84h.91v4.75h.88v.84H30.83V52.84Z" transform="translate(-4.24 -28.75)"/><path d="M17.81,60.67V59.24h.78v.13H18v.52h.62V60H18v.53h.64v.13h-.78Z" transform="translate(-4.24 -28.75)"/><path d="M20.09,60.67l-.4-.61-.41.61h-.17l.49-.73-.46-.7h.17l.38.58.38-.58h.16l-.46.7.49.73Z" transform="translate(-4.24 -28.75)"/><path d="M21,60.67v-1.3h-.33v-.13h.8v.13h-.33v1.31H21Z" transform="translate(-4.24 -28.75)"/><path d="M22,60.67V59.24h.78v.13h-.64v.52h.62V60h-.62v.53h.64v.13H22Z" transform="translate(-4.24 -28.75)"/><path d="M24.2,60.67,23.72,60h.13c.26,0,.41-.13.41-.33s-.08-.33-.41-.33h-.27v1.31h-.15V59.24h.43c.38,0,.54.22.54.46a.43.43,0,0,1-.42.44l.4.53Z" transform="translate(-4.24 -28.75)"/><path d="M25,60.67V59.24h.14v1.43Z" transform="translate(-4.24 -28.75)"/><path d="M26.52,60.7a.74.74,0,1,1,0-1.48.74.74,0,1,1,0,1.48Zm0-1.35a.61.61,0,0,0-.61.61.62.62,0,0,0,1.23,0A.63.63,0,0,0,26.52,59.35Z" transform="translate(-4.24 -28.75)"/><path d="M28.65,60.67,28.17,60h.14c.25,0,.4-.13.4-.33s-.08-.33-.41-.33H28v1.31h-.14V59.24h.43c.37,0,.54.22.54.46a.43.43,0,0,1-.42.44l.4.53Z" transform="translate(-4.24 -28.75)"/><path d="M48,45.05a1.62,1.62,0,0,1-1.41.85A1.58,1.58,0,1,1,48,43.58h-.35a1.27,1.27,0,0,0-1-.56,1.3,1.3,0,1,0,1.07,2Z" transform="translate(-4.24 -28.75)"/><path d="M50.48,45.85v-.4h0a1,1,0,0,1-.88.45,1.18,1.18,0,1,1,0-2.36,1,1,0,0,1,.88.45h0v-.4h.29v2.26Zm0-1.13a.92.92,0,0,0-.91-.92.9.9,0,0,0-.92.93.89.89,0,0,0,.92.91A.91.91,0,0,0,50.5,44.72Z" transform="translate(-4.24 -28.75)"/><path d="M51.29,45.85V42.8h.29v3.05Z" transform="translate(-4.24 -28.75)"/><path d="M52.11,45.85V42.8h.29v3.05Z" transform="translate(-4.24 -28.75)"/><path d="M54,44.73a1.18,1.18,0,1,1,1.18,1.17A1.19,1.19,0,0,1,54,44.73Zm2.07,0a.9.9,0,0,0-.89-.91.91.91,0,0,0-.89.93.89.89,0,1,0,1.78,0Z" transform="translate(-4.24 -28.75)"/><path d="M56.77,45.85V43.59h.29v.33h0c.1-.24.27-.36.64-.38v.3h0a.65.65,0,0,0-.64.68v1.33Z" transform="translate(-4.24 -28.75)"/><path d="M59.42,45.85v-2H59v-.26h.47V42.8h.29v.79h.54v.26h-.54v2Z" transform="translate(-4.24 -28.75)"/><path d="M60.74,44.83a.89.89,0,0,0,.87.81.86.86,0,0,0,.81-.53h.3a1.17,1.17,0,0,1-2.28-.39,1.19,1.19,0,0,1,1.17-1.18,1.2,1.2,0,0,1,1.18,1.2v.09Zm1.75-.26a.89.89,0,0,0-.88-.77.88.88,0,0,0-.87.77Z" transform="translate(-4.24 -28.75)"/><path d="M64.54,45.85,64,44.94l-.6.91H63l.77-1.15L63,43.59h.35l.59.87.59-.87h.35l-.77,1.11.77,1.15Z" transform="translate(-4.24 -28.75)"/><path d="M65.47,45.85v-2H65v-.26h.48V42.8h.29v.79h.53v.26h-.53v2Z" transform="translate(-4.24 -28.75)"/><path d="M67.9,45.85v-2h-.35v-.26h.35c0-.61.29-.83.87-.84V43h0c-.4,0-.57.17-.57.57h.58v.26h-.58v2Z" transform="translate(-4.24 -28.75)"/><path d="M68.94,44.73a1.18,1.18,0,1,1,1.17,1.17A1.18,1.18,0,0,1,68.94,44.73Zm2.07,0a.89.89,0,1,0-.89.93A.91.91,0,0,0,71,44.71Z" transform="translate(-4.24 -28.75)"/><path d="M71.73,45.85V43.59H72v.33h0c.09-.24.27-.36.63-.38v.3h0a.65.65,0,0,0-.64.68v1.33Z" transform="translate(-4.24 -28.75)"/><path d="M74.27,45.85v-2h-.35v-.26h.35c0-.61.29-.83.86-.84V43h0c-.4,0-.57.17-.57.57h.57v.26h-.57v2Z" transform="translate(-4.24 -28.75)"/><path d="M77.4,45.85v-.4h0a1.06,1.06,0,0,1-.88.45,1.18,1.18,0,1,1,0-2.36,1,1,0,0,1,.88.45h0v-.4h.29v2.26Zm0-1.13a.91.91,0,0,0-.91-.92.92.92,0,1,0,.91.92Z" transform="translate(-4.24 -28.75)"/><path d="M79.08,44.15a.34.34,0,0,0-.34-.35.33.33,0,0,0-.34.33c0,.17.12.28.39.37.55.19.66.4.66.73a.65.65,0,0,1-.71.67.68.68,0,0,1-.7-.7v0h.29c0,.3.16.46.41.46a.37.37,0,0,0,.42-.4c0-.22-.14-.34-.4-.44s-.65-.25-.65-.64a.61.61,0,0,1,.64-.62.6.6,0,0,1,.62.61Z" transform="translate(-4.24 -28.75)"/><path d="M80.08,45.85v-2H79.6v-.26h.48V42.8h.29v.79h.53v.26h-.53v2Z" transform="translate(-4.24 -28.75)"/><path d="M84.33,46.64V45.45h0a1,1,0,0,1-.88.45,1.18,1.18,0,1,1,0-2.36,1,1,0,0,1,.88.45h0v-.4h.29v3Zm0-1.92a.92.92,0,1,0-1.83,0,.89.89,0,0,0,.92.91A.91.91,0,0,0,84.35,44.72Z" transform="translate(-4.24 -28.75)"/><path d="M86.85,45.85V45.5h0a.76.76,0,0,1-.72.4.92.92,0,0,1-1-1V43.59h.29v1.26c0,.51.22.79.69.79a.71.71,0,0,0,.71-.81V43.59h.29v2.26Z" transform="translate(-4.24 -28.75)"/><path d="M87.56,44.73a1.18,1.18,0,1,1,1.18,1.17A1.19,1.19,0,0,1,87.56,44.73Zm2.07,0a.9.9,0,0,0-.89-.91.91.91,0,0,0-.89.93.89.89,0,1,0,1.78,0Z" transform="translate(-4.24 -28.75)"/><path d="M90.62,45.85v-2h-.47v-.26h.47V42.8h.29v.79h.54v.26h-.54v2Z" transform="translate(-4.24 -28.75)"/><path d="M91.94,44.83a.9.9,0,0,0,.87.81.85.85,0,0,0,.81-.53h.3a1.16,1.16,0,0,1-1.1.79,1.18,1.18,0,0,1,0-2.36A1.2,1.2,0,0,1,94,44.74v.09Zm1.76-.26a.89.89,0,0,0-1.76,0Z" transform="translate(-4.24 -28.75)"/><path d="M95.29,44.15a.34.34,0,1,0-.67,0c0,.17.11.28.39.37.54.19.65.4.65.73a.65.65,0,0,1-.71.67.67.67,0,0,1-.69-.7v0h.29c0,.3.16.46.4.46a.37.37,0,0,0,.42-.4c0-.22-.14-.34-.4-.44s-.64-.25-.64-.64a.61.61,0,0,1,.64-.62.59.59,0,0,1,.61.61Z" transform="translate(-4.24 -28.75)"/><path d="M59.88,49.9a1,1,0,0,1-2,0,.88.88,0,0,1,.53-.81.73.73,0,0,1-.36-.61.81.81,0,0,1,1.61,0,.71.71,0,0,1-.36.61A.9.9,0,0,1,59.88,49.9Zm-.31,0a.66.66,0,0,0-.67-.66.68.68,0,0,0-.66.65.67.67,0,1,0,1.33,0ZM58.91,48a.5.5,0,0,0-.51.5.52.52,0,0,0,.51.5.5.5,0,0,0,0-1Z" transform="translate(-4.24 -28.75)"/><path d="M61,49.19v-.27h.12a.49.49,0,0,0,.55-.48.45.45,0,0,0-.47-.48.49.49,0,0,0-.46.54h-.3a.77.77,0,0,1,.77-.81.76.76,0,0,1,.77.78.7.7,0,0,1-.31.57.94.94,0,0,1,.51.81,1,1,0,1,1-1.94,0h.3a.69.69,0,0,0,.68.74.66.66,0,0,0,.66-.7.7.7,0,0,0-.76-.68Z" transform="translate(-4.24 -28.75)"/><path d="M62.49,50.79v-.28l1.28-1.22a1,1,0,0,0,.37-.68.66.66,0,0,0-.66-.65c-.39,0-.65.28-.66.76h-.3a1,1,0,1,1,1.93-.1,1.36,1.36,0,0,1-.57,1l-1,.93h1.53v.28Z" transform="translate(-4.24 -28.75)"/><path d="M65,50.79v-.52h.3v.52Z" transform="translate(-4.24 -28.75)"/><path d="M66.62,48.78a.72.72,0,0,1,.29-.06,1,1,0,0,1,1,1.05,1,1,0,1,1-2.08,0,1.35,1.35,0,0,1,.24-.72l.88-1.3h.35l-.71,1Zm1,1a.75.75,0,0,0-.75-.79.79.79,0,0,0,0,1.58A.75.75,0,0,0,67.63,49.78Z" transform="translate(-4.24 -28.75)"/><path d="M70.19,49.71a1,1,0,1,1-2,0v-1a1,1,0,1,1,2,0Zm-.3-.88c0-.67-.42-.87-.73-.87s-.7.22-.7.87v.84c0,.7.36.9.71.9s.72-.19.72-.89Z" transform="translate(-4.24 -28.75)"/><path d="M71.22,49.19v-.27h.12a.49.49,0,0,0,.55-.48.46.46,0,0,0-.47-.48.48.48,0,0,0-.46.54h-.31a.78.78,0,0,1,.77-.81.75.75,0,0,1,.77.78.67.67,0,0,1-.31.57.93.93,0,0,1,.52.81,1,1,0,1,1-2,0h.31a.69.69,0,0,0,.68.74.66.66,0,0,0,.65-.7.7.7,0,0,0-.75-.68Z" transform="translate(-4.24 -28.75)"/><path d="M73,50.79v-.52h.31v.52Z" transform="translate(-4.24 -28.75)"/><path d="M75.33,50.79v-.56H73.79V50l1.48-2.22h.36V50h.28v.27h-.28v.56Zm0-2.63h0L74.14,50h1.19Z" transform="translate(-4.24 -28.75)"/><path d="M77.09,50.79V48h-.52v-.28h.83v3Z" transform="translate(-4.24 -28.75)"/><path d="M79,50.79l.7-1h0a.57.57,0,0,1-.29.07,1,1,0,0,1-1-1.06,1,1,0,0,1,1-1.07,1,1,0,0,1,1,1.08c0,.21,0,.4-.38.92l-.75,1.1Zm1.16-2a.74.74,0,1,0-1.47,0,.74.74,0,1,0,1.47,0Z" transform="translate(-4.24 -28.75)"/><path d="M81.38,48l-.16.84a1.08,1.08,0,0,1,.52-.15,1.07,1.07,0,1,1-1.06,1.12H81a.74.74,0,1,0,.74-.85.79.79,0,0,0-.63.35l-.24-.09.27-1.5H82.5V48Z" transform="translate(-4.24 -28.75)"/></svg>