<svg id="Layer_1" data-name="Layer 1" xmlns="http://www.w3.org/2000/svg" viewBox="0 0 93 93"><defs><style>.cls-1{fill:#ffaf10;}</style></defs><circle class="cls-1" cx="46.5" cy="46.5" r="46.5"/><path d="M46.73,62.66A5.64,5.64,0,0,1,48,56.93a6.32,6.32,0,0,1,6.38-1.47c2.66.76,5,3.33,7.33,5.82,2.67,2.89,5.43,5.88,8.79,6.19,3.63.34,5.36-3.21,5.77-5.14L75,62.05s-1,4.39-4.32,4.07c-2.85-.26-5.31-2.93-7.92-5.76-2.43-2.62-4.93-5.34-7.95-6.2A7.67,7.67,0,0,0,47.05,56a6.83,6.83,0,0,0-1.95,4.56,7.59,7.59,0,0,0,.34,2.52,7.71,7.71,0,0,0,1.12,2.19l2.38.68A8.26,8.26,0,0,1,46.73,62.66Z" transform="translate(-3.5 -1.5)"/><polygon points="22.15 29.87 22.9 27.98 18.77 27 18.48 27.75 22.15 29.87"/><path d="M26.2,29.73h1.57a.54.54,0,0,1,.54.54v1.6a0,0,0,0,1,0,0H25.66a0,0,0,0,1,0,0v-1.6a.54.54,0,0,1,.54-.54Z" transform="translate(62.07 15.6) rotate(111.66)"/><rect x="38.71" y="23.43" width="1.41" height="24.62" transform="translate(83.69 10.8) rotate(111.66)"/><path d="M55.78,40.81a26.44,26.44,0,0,0-4.66-1.18l-.26.66-.26.65a26.29,26.29,0,0,0,4.2,2.34l14.71,5.84L70,47.89l.49-1.24Z" transform="translate(-3.5 -1.5)"/><path d="M74.26,58.39a8.32,8.32,0,0,0,0-2.4A17.61,17.61,0,0,0,73,51.18a17.62,17.62,0,0,1-.47,6.67A13.72,13.72,0,0,0,74.19,59Z" transform="translate(-3.5 -1.5)"/><path d="M70.49,46.65l4.68,1.86c1.23.49,2.21,5,2.68,7.87.39,2.42.05,5.6-.35,5.77s-6-1.3-7.3-4.22c-1-2.42-.69-8.81-.69-8.81Zm4.42,13.61a19.66,19.66,0,0,0,.16-4.4c-.73-4.54-1.53-5.56-1.95-5.9l-.66-.26a1.37,1.37,0,0,0-1.78.76h0c.09,2.28-.27,5.28.49,7C71.62,58.56,74.5,60.16,74.91,60.26Z" transform="translate(-3.5 -1.5)"/><rect x="65.37" y="47.85" width="1.66" height="1.29" transform="translate(19.07 -22.51) rotate(21.66)"/><rect x="74.23" y="60.87" width="3.05" height="1.88" transform="translate(17.96 -21) rotate(17.06)"/></svg>