<svg id="Layer_1" data-name="Layer 1" xmlns="http://www.w3.org/2000/svg" viewBox="0 0 93 93"><defs><style>.cls-1{fill:#ffaf10;}.cls-2{fill:#070707;}</style></defs><circle class="cls-1" cx="46.5" cy="46.5" r="46.5"/><path class="cls-2" d="M26.37,50.23h5.39V68.31a1,1,0,0,0,1,1h36.1a1,1,0,0,0,1-1V50.9h3.77a1,1,0,0,0,.83-1.56L63,32.5a1,1,0,0,0-.83-.44H59.94V27.69a1,1,0,0,0-1-1H54.47a1,1,0,0,0-1,1v4.37H37.37l-.22,0-.07,0-.14.06-.07,0-.06,0-.06,0s0,0-.06.05a.71.71,0,0,0-.12.13s0,0,0,0l-11,16.16a1,1,0,0,0-.06,1A1,1,0,0,0,26.37,50.23ZM44,67.31H40.5V56.13a2.93,2.93,0,0,1,3.45,0Zm9.51,0H46V55.68a1,1,0,0,0-.3-.71,4.86,4.86,0,0,0-6.87,0,1,1,0,0,0-.3.71V67.31H33.76V49.54l6.81-10L48,50.46a1,1,0,0,0,.83.44h4.63Zm14.39,0H55.47V50.9H67.85ZM53.46,34.07v5.4a1,1,0,1,0,2,0V28.69h2.46V39.47a1,1,0,1,0,2,0v-5.4h1.7L71.73,48.9H49.36l-8-11.67h0l-2.14-3.14Zm-16.09.78,2,2.91L32.23,48.23h-4Z" transform="translate(-3.5 -1.5)"/><path class="cls-2" d="M50.68,47H67a1,1,0,0,0,0-2H50.68a1,1,0,0,0,0,2Z" transform="translate(-3.5 -1.5)"/></svg>