<svg id="Layer_1" data-name="Layer 1" xmlns="http://www.w3.org/2000/svg" width="499" height="499" viewBox="0 0 499 499"><defs><style>.cls-1{fill:#ffaf12;}.cls-2{fill:#191919;}.cls-3{fill:#ca782a;}</style></defs><circle class="cls-1" cx="249.5" cy="249.5" r="249.5"/><polygon class="cls-2" points="262.371 224.105 257.898 169.719 249.5 169.719 241.105 169.719 236.633 224.105 262.371 224.105"/><path d="M361.2773,313.2382c0-30.078-15.1132-72.664-44.6211-96.6913a107.411,107.411,0,0,0-23.93-14.7031l-2.4532-15.8359a100.2728,100.2728,0,0,0-31.7695-8.8985l3.8672,46.9961H236.6328l3.8789-47.1484c-19.4609,1.7383-31.7812,9.0508-31.7812,9.0508l-2.8321,15.8515c-29.5,13.5391-50.93,39.7735-61.0156,68.711a129.7631,129.7631,0,0,0-7.1562,42.6678H361.2773"/><path class="cls-2" d="M349.1094,260.5469c.332,6.3163.0195,12.8047-2.1524,18.6993-3.7617,10.1914-6.9922,14.5586-17.4648,15.5664-43.586,4.1836-48.543,1.4882-133.1524,1.8632-8.1562.0391-21.0781-.6992-28.4648-5.0156-7.832-4.5742-8.7578-14.6875-6.7227-22.789,2.7266-10.8672,11.0039-18.5625,17.75-27.0391,3.7774-4.7344,7.2774-9.9259,8.8828-15.8516,1.4883-5.5,2.7969-11.1093,4.4493-16.5937-22.4727,14.5781-38.8985,36.9258-47.3516,61.1836a129.7631,129.7631,0,0,0-7.1562,42.6678H361.2773C361.2773,297.6016,357.18,278.5821,349.1094,260.5469Z"/><line x1="290.2734" y1="186.0079" x2="298.8281" y2="241.2032"/><rect class="cls-3" x="292.1573" y="185.6783" width="4.787" height="55.8543" transform="translate(-29.2406 47.6339) rotate(-8.8101)"/><line x1="198.8711" y1="241.2032" x2="208.7305" y2="186.0079"/><rect class="cls-3" x="175.7663" y="211.2117" width="56.069" height="4.7875" transform="translate(-42.3116 376.6721) rotate(-79.8729)"/><path d="M362.5312,313.2382H136.6289s-10.1875.383-10.0859,16.043H372.457C372.5625,313.6212,362.5312,313.2382,362.5312,313.2382Z"/></svg>