<svg xmlns="http://www.w3.org/2000/svg" width="21.673" height="20.848" viewBox="0 0 21.673 20.848">
  <g id="IBStarIcon" transform="translate(0 0)">
    <g id="Group_10768" data-name="Group 10768" transform="translate(0 0)">
      <ellipse id="Ellipse_17" data-name="Ellipse 17" cx="10.837" cy="10.424" rx="10.837" ry="10.424" fill="#171717"/>
      <path id="Path_289" data-name="Path 289" d="M24.594,28.525l-1.1,3.564c-.1.34.054.454.353.249l3.127-2.126a1.043,1.043,0,0,1,1.085,0l2.765,1.877.362.244c.3.205.447.092.353-.249l-1.1-3.56a.954.954,0,0,1,.074-.688.858.858,0,0,1,.261-.332l2.667-1.964.371-.273c.29-.218.223-.4-.134-.4l-3.81-.076a1.028,1.028,0,0,1-.88-.624l-1.246-3.523c-.125-.338-.322-.338-.447,0l-.156.437-1.09,3.082a1,1,0,0,1-.554.548.91.91,0,0,1-.326.076l-3.8.076c-.366,0-.427.188-.134.4l.161.12,2.863,2.122A.984.984,0,0,1,24.594,28.525Z" transform="translate(-16.584 -15.954)" fill="#f3b241"/>
    </g>
  </g>
</svg>