<svg id="Layer_1" data-name="Layer 1" xmlns="http://www.w3.org/2000/svg" width="499" height="499" viewBox="0 0 499 499"><defs><style>.cls-1{fill:#ffaf12;}.cls-2{fill:#fff;}.cls-3{isolation:isolate;}.cls-4{fill:#1a1a1a;}</style></defs><circle class="cls-1" cx="249.5" cy="249.5" r="249.5"/><circle class="cls-2" cx="249.5" cy="249.5" r="210.5"/><g class="cls-3"><polygon points="335.384 228.409 335.667 228.528 335.48 228.907 335.196 228.788 335.384 228.409"/><polygon points="335.666 229.283 276.786 229.716 276.503 229.596 335.383 229.164 335.666 229.283"/><polygon points="335.236 273.989 334.952 273.87 335.009 229.167 335.292 229.286 335.236 273.989"/><polygon points="335.293 228.531 335.666 229.283 335.383 229.164 335.01 228.412 335.293 228.531"/><polygon points="335.292 229.286 335.009 229.167 335.196 228.788 335.48 228.907 335.292 229.286"/><polygon points="335.445 179.672 335.729 179.792 335.541 180.166 335.258 180.047 335.445 179.672"/><polygon points="335.728 180.538 276.848 180.97 276.564 180.851 335.444 180.418 335.728 180.538"/><polygon points="335.667 228.528 335.384 228.409 335.07 180.421 335.354 180.54 335.667 228.528"/><polygon points="335.355 179.795 335.728 180.538 335.444 180.418 335.071 179.675 335.355 179.795"/><polygon points="335.354 180.54 335.07 180.421 335.258 180.047 335.541 180.166 335.354 180.54"/><polygon points="339.286 128.092 339.097 278.273 338.813 278.153 339.003 127.972 339.286 128.092"/><polygon points="338.607 277.782 338.324 277.663 338.512 128.479 338.796 128.598 338.607 277.782"/><polygon points="276.729 274.796 276.446 274.677 334.952 273.87 335.236 273.989 276.729 274.796"/><polygon points="275.981 274.424 276.729 274.796 276.446 274.677 275.698 274.305 275.981 274.424"/><polygon points="276.73 274.419 276.729 274.796 276.446 274.677 276.446 274.299 276.73 274.419"/><polygon points="276.729 274.796 275.981 274.802 275.697 274.682 276.446 274.677 276.729 274.796"/><polygon points="275.981 274.802 275.697 274.682 275.698 274.305 275.981 274.424 275.981 274.802"/><polygon points="336.165 131.07 335.983 274.729 335.699 274.61 335.881 130.951 336.165 131.07"/><polygon points="335.729 179.792 335.445 179.672 335.132 131.702 335.415 131.821 335.729 179.792"/><polygon points="276.786 229.716 276.73 274.419 276.446 274.299 276.503 229.596 276.786 229.716"/><polygon points="276.787 228.961 276.504 228.842 335.01 228.412 335.293 228.531 276.787 228.961"/><polygon points="276.038 229.721 275.754 229.602 276.503 229.596 276.786 229.716 276.038 229.721"/><polygon points="276.786 229.716 276.038 229.721 275.754 229.602 276.503 229.596 276.786 229.716"/><polygon points="276.038 229.721 220.356 230.13 220.073 230.011 275.754 229.602 276.038 229.721"/><polygon points="275.981 274.424 275.698 274.305 275.754 229.602 276.038 229.721 275.981 274.424"/><polygon points="276.039 228.967 275.755 228.847 276.504 228.842 276.787 228.961 276.039 228.967"/><polygon points="276.787 228.961 276.039 228.967 275.755 228.847 276.504 228.842 276.787 228.961"/><polygon points="276.848 180.97 276.787 228.961 276.504 228.842 276.564 180.851 276.848 180.97"/><polygon points="276.849 180.224 276.565 180.105 335.071 179.675 335.355 179.795 276.849 180.224"/><polygon points="276.1 180.976 275.816 180.856 276.564 180.851 276.848 180.97 276.1 180.976"/><polygon points="276.848 180.97 276.1 180.976 275.816 180.856 276.564 180.851 276.848 180.97"/><polygon points="276.1 180.976 220.418 181.385 220.134 181.265 275.816 180.856 276.1 180.976"/><polygon points="276.039 228.967 275.755 228.847 275.816 180.856 276.1 180.976 276.039 228.967"/><polygon points="276.101 180.23 275.817 180.111 276.565 180.105 276.849 180.224 276.101 180.23"/><polygon points="276.849 180.224 276.1 180.23 275.817 180.11 276.565 180.105 276.849 180.224"/><polygon points="220.299 275.211 220.016 275.091 275.698 274.305 275.981 274.424 220.299 275.211"/><polygon points="219.551 274.839 220.299 275.211 220.016 275.091 219.268 274.72 219.551 274.839"/><polygon points="220.3 274.833 220.299 275.211 220.016 275.091 220.016 274.714 220.3 274.833"/><polygon points="220.299 275.211 219.551 275.216 219.267 275.097 220.016 275.091 220.299 275.211"/><polygon points="219.551 275.216 219.267 275.097 219.268 274.72 219.551 274.839 219.551 275.216"/><polygon points="335.415 131.821 276.91 132.251 276.626 132.132 335.132 131.702 335.415 131.821"/><polygon points="276.91 132.251 276.849 180.224 276.565 180.105 276.626 132.132 276.91 132.251"/><polygon points="276.161 132.257 275.878 132.137 275.878 131.76 276.162 131.879 276.161 132.257"/><polygon points="276.91 132.251 276.626 132.132 275.878 131.76 276.162 131.879 276.91 132.251"/><polygon points="276.91 131.874 276.91 132.251 276.626 132.132 276.626 131.755 276.91 131.874"/><polygon points="276.1 180.23 275.817 180.11 275.878 132.137 276.161 132.257 276.1 180.23"/><polygon points="276.162 131.879 275.878 131.76 276.626 131.755 276.91 131.874 276.162 131.879"/><polygon points="220.356 230.13 220.3 274.833 220.016 274.714 220.073 230.011 220.356 230.13"/><polygon points="220.357 229.376 220.074 229.256 275.755 228.847 276.039 228.967 220.357 229.376"/><polygon points="219.608 230.136 219.324 230.016 220.073 230.011 220.356 230.13 219.608 230.136"/><polygon points="220.356 230.13 219.608 230.136 219.324 230.017 220.073 230.011 220.356 230.13"/><polygon points="219.608 230.136 163.926 230.545 163.643 230.426 219.324 230.017 219.608 230.136"/><polygon points="219.551 274.839 219.268 274.72 219.324 230.016 219.608 230.136 219.551 274.839"/><polygon points="219.609 229.381 219.325 229.262 220.074 229.256 220.357 229.376 219.609 229.381"/><polygon points="220.357 229.376 219.609 229.381 219.325 229.262 220.074 229.256 220.357 229.376"/><polygon points="220.418 181.385 220.357 229.376 220.074 229.256 220.134 181.265 220.418 181.385"/><polygon points="220.419 180.639 220.135 180.52 275.817 180.111 276.101 180.23 220.419 180.639"/><polygon points="219.67 181.39 219.386 181.271 220.134 181.265 220.418 181.385 219.67 181.39"/><polygon points="220.418 181.385 219.67 181.39 219.386 181.271 220.134 181.265 220.418 181.385"/><polygon points="219.67 181.39 163.988 181.799 163.705 181.68 219.386 181.271 219.67 181.39"/><polygon points="219.609 229.381 219.325 229.262 219.386 181.271 219.67 181.39 219.609 229.381"/><polygon points="219.671 180.644 219.387 180.525 220.135 180.52 220.419 180.639 219.671 180.644"/><polygon points="220.419 180.639 219.671 180.644 219.387 180.525 220.135 180.52 220.419 180.639"/><polygon points="163.87 275.248 163.586 275.129 219.268 274.72 219.551 274.839 163.87 275.248"/><polygon points="335.983 274.729 163.121 275.999 162.837 275.88 335.699 274.61 335.983 274.729"/><polygon points="160.489 279.091 160.205 278.971 338.324 277.663 338.607 277.782 160.489 279.091"/><polygon points="339.097 278.273 159.998 279.588 159.714 279.469 338.813 278.153 339.097 278.273"/><polygon points="220.48 132.666 220.419 180.639 220.135 180.52 220.196 132.546 220.48 132.666"/><polygon points="276.162 131.879 220.48 132.666 220.196 132.546 275.878 131.76 276.162 131.879"/><polygon points="220.48 132.288 220.48 132.666 220.196 132.546 220.197 132.169 220.48 132.288"/><polygon points="219.671 180.644 219.387 180.525 219.448 132.552 219.731 132.671 219.671 180.644"/><polygon points="219.732 132.294 219.448 132.175 220.197 132.169 220.48 132.288 219.732 132.294"/><polygon points="219.731 132.671 219.448 132.552 219.448 132.175 219.732 132.294 219.731 132.671"/><polygon points="220.48 132.666 220.196 132.546 219.448 132.175 219.732 132.294 220.48 132.666"/><polygon points="163.927 229.79 163.74 230.169 163.456 230.05 163.644 229.671 163.927 229.79"/><polygon points="163.926 230.545 163.643 230.426 163.27 229.674 163.553 229.793 163.926 230.545"/><polygon points="163.269 230.428 163.456 230.05 163.74 230.169 163.552 230.548 163.269 230.428"/><polygon points="163.552 230.548 163.87 275.248 163.586 275.129 163.269 230.428 163.552 230.548"/><polygon points="163.553 229.793 163.27 229.674 219.325 229.262 219.609 229.381 163.553 229.793"/><polygon points="163.989 181.053 163.801 181.428 163.518 181.308 163.705 180.934 163.989 181.053"/><polygon points="163.988 181.799 163.705 181.68 163.331 180.937 163.615 181.056 163.988 181.799"/><polygon points="163.33 181.683 163.518 181.308 163.801 181.428 163.614 181.802 163.33 181.683"/><polygon points="163.614 181.802 163.927 229.79 163.644 229.671 163.33 181.683 163.614 181.802"/><polygon points="163.615 181.056 163.331 180.937 219.387 180.525 219.671 180.644 163.615 181.056"/><polygon points="219.732 132.294 164.05 133.08 163.766 132.961 219.448 132.175 219.732 132.294"/><polygon points="164.05 133.08 163.989 181.053 163.705 180.934 163.766 132.961 164.05 133.08"/><polygon points="163.121 275.999 162.837 275.88 163.019 132.221 163.302 132.34 163.121 275.999"/><polygon points="163.302 132.34 163.019 132.221 335.881 130.951 336.165 131.07 163.302 132.34"/><polygon points="160.677 129.907 160.489 279.091 160.205 278.971 160.394 129.788 160.677 129.907"/><polygon points="338.796 128.598 160.677 129.907 160.394 129.788 338.512 128.479 338.796 128.598"/><polygon points="159.998 279.588 159.714 279.469 159.904 129.288 160.188 129.407 159.998 279.588"/><polygon points="160.188 129.407 159.904 129.288 339.003 127.972 339.286 128.092 160.188 129.407"/></g><path class="cls-4" d="M283.9868,203.8938s1.5961-21.6889,25.6323-12.6753,16.2432,47.04-2.1595,38.2137Z"/><path class="cls-4" d="M312.7725,232.4521a13.9983,13.9983,0,0,1-6.0484-1.4861,1.7008,1.7008,0,0,1-.5167-.3828l-23.473-25.5383a1.7012,1.7012,0,0,1-.444-1.276,22.1335,22.1335,0,0,1,2.5025-8.1232c2.069-3.7959,6.2307-8.3208,14.3069-8.3208a32.16,32.16,0,0,1,11.1166,2.301,24.025,24.025,0,0,1,13.6256,12.4885,27.4631,27.4631,0,0,1,2.097,16.4077C324.4046,226.9842,319.2363,232.4521,312.7725,232.4521Zm-4.2885-4.4189a10.4392,10.4392,0,0,0,4.2885,1.017c5.7573,0,8.8877-5.9984,9.8192-11.1351,1.6368-9.0262-1.9115-20.7321-13.57-25.104a28.8283,28.8283,0,0,0-9.922-2.0844c-5.1058,0-8.8973,2.1718-11.2692,6.455a19.1317,19.1317,0,0,0-2.0589,6.1406Z"/><path class="cls-4" d="M215.5308,203.8938s-1.5961-21.6889-25.6323-12.6753-16.2432,47.04,2.1595,38.2137Z"/><path class="cls-4" d="M186.7476,232.4521h-.0028c-6.4648-.0016-11.6331-5.4713-13.1668-13.9348a27.4588,27.4588,0,0,1,2.0984-16.4052,24.025,24.025,0,0,1,13.6249-12.4862,32.1586,32.1586,0,0,1,11.1165-2.301c8.0761,0,12.2378,4.5249,14.3068,8.3208a22.1348,22.1348,0,0,1,2.5026,8.1232,1.7013,1.7013,0,0,1-.4441,1.276L193.31,230.5832a1.7008,1.7008,0,0,1-.5167.3828A13.9941,13.9941,0,0,1,186.7476,232.4521Zm13.67-41.7254a28.8288,28.8288,0,0,0-9.9221,2.0844c-11.6566,4.3713-15.2057,16.0751-13.57,25.1.931,5.1379,4.0616,11.1382,9.82,11.1395h.002a10.4348,10.4348,0,0,0,4.286-1.0169l22.7124-24.7112a19.1387,19.1387,0,0,0-2.059-6.14C209.3151,192.8985,205.5236,190.7267,200.4178,190.7267Z"/><path class="cls-2" d="M318.1837,277.63s7.1117-82.6173-68.3938-80.9528c-75.5056-1.6645-68.3938,80.9528-68.3938,80.9528"/><path class="cls-4" d="M318.1857,279.3315c-.049,0-.0982-.0021-.1479-.0064a1.7009,1.7009,0,0,1-1.5488-1.8406,104.2676,104.2676,0,0,0-1.1209-22.1738c-1.7582-11.358-6.2165-27.4139-17.4722-39.4036-11.3449-12.0844-27.5181-17.9841-48.0685-17.529-.0251.0005-.05.0005-.075,0-20.5577-.4536-36.7359,5.449-48.0813,17.5427-11.2691,12.0123-15.7222,28.1009-17.4736,39.4825a103.8266,103.8266,0,0,0-1.1067,22.0812,1.701,1.701,0,1,1-3.3894.2918,105.5066,105.5066,0,0,1,1.1338-22.89,93.9473,93.9473,0,0,1,5.5976-20.8726,65.4436,65.4436,0,0,1,12.7573-20.42c12.0279-12.8212,29.05-19.0851,50.6-18.6171,21.5486-.47,38.572,5.7959,50.6,18.6171a65.4443,65.4443,0,0,1,12.7574,20.42,93.9426,93.9426,0,0,1,5.5975,20.8724,105.5066,105.5066,0,0,1,1.1338,22.89A1.7011,1.7011,0,0,1,318.1857,279.3315Z"/><path class="cls-4" d="M264.2249,241.92a24.9,24.9,0,0,1,6.5831,15.5854c.2261,6.5656,12.0285,12.71,16.4166,8.1709s7.1341-19.0713,2.4539-25.8424c-4.7367-6.8528-9.4143-11.1052-19.7037-10.879C260.4444,229.1647,262.6879,239.7714,264.2249,241.92Z"/><path class="cls-4" d="M235.3549,241.92a24.9,24.9,0,0,0-6.5831,15.5854c-.2261,6.5656-12.0285,12.71-16.4166,8.1709s-7.1342-19.0713-2.454-25.8424c4.7368-6.8528,9.4144-11.1052,19.7037-10.879C239.1354,229.1647,236.8919,239.7714,235.3549,241.92Z"/><path class="cls-4" d="M263.9878,248.9218c0,4.0949-6.3566,10.1381-14.1979,10.1381s-14.1979-6.0432-14.1979-10.1381,6.3566-5.9012,14.1979-5.9012S263.9878,244.827,263.9878,248.9218Z"/><path class="cls-4" d="M264.0134,264.4661a8.7169,8.7169,0,0,1-.64.87c-.231.2759-.4707.5473-.7257.8036-.1263.13-.2538.26-.388.3813-.1316.1255-.2671.2468-.4045.367-.135.1239-.2784.2365-.4215.3512-.1417.1167-.2887.2271-.437.3373-.1462.1136-.3.2154-.4553.3182-.1536.1046-.31.2065-.4715.3021-.16.0986-.3207.196-.49.2823s-.3319.1839-.5082.26c-.1748.0782-.3466.165-.527.236l-.5463.209-.5678.1738c-.1914.055-.39.0933-.5869.1383l-.1483.0324-.1516.0229-.3049.0435a5.579,5.579,0,0,1-.6206.0533l-.3144.0144c-.1056-.001-.2119-.0071-.3182-.0111a5.1553,5.1553,0,0,1-.64-.0494c-.2128-.0346-.4293-.0551-.6406-.1067s-.4231-.1072-.6344-.165c-.2057-.0728-.4106-.1509-.6159-.2294-.051-.02-.1027-.0393-.1528-.0614l-.1461-.0732-.292-.1488-.291-.152-.2719-.1764-.27-.18a2.6159,2.6159,0,0,1-.2615-.1888q-.2486-.2-.4928-.4072a2.5332,2.5332,0,0,1-.2307-.2153l-.2208-.2223a9.691,9.691,0,0,1-.8082-.9341,5.8611,5.8611,0,0,1-.3482-.4928l-.3323-.5h2.9074l-.3319.5c-.1148.165-.2138.3351-.3475.4933a9.9342,9.9342,0,0,1-.8077.9348l-.2208.2224a2.5358,2.5358,0,0,1-.2309.2153c-.1632.1375-.3264.2748-.4924.4079a2.6015,2.6015,0,0,1-.2616.1888l-.2706.18-.2716.1771-.2912.152-.2922.1488-.1462.0733c-.05.0221-.1019.041-.1528.0615-.2049.0795-.41.1568-.616.23-.2116.0571-.4228.1144-.6345.1655s-.4281.0721-.6411.1066a5.0283,5.0283,0,0,1-.64.05c-.1063.0039-.2128.01-.3184.0109l-.3146-.014a5.5351,5.5351,0,0,1-.6208-.0535l-.3051-.0431-.1518-.023-.1483-.0325c-.1967-.0455-.3957-.0829-.5873-.1382l-.568-.1739-.5465-.2093c-.18-.0709-.3524-.1574-.5273-.236-.1762-.0763-.34-.1724-.5083-.26s-.33-.1836-.49-.2824c-.1615-.0958-.3178-.1978-.4715-.3026-.155-.1028-.3087-.2053-.4553-.3183-.1483-.11-.2952-.2209-.4369-.3377-.1429-.1153-.2866-.2273-.4215-.3515-.1373-.12-.2728-.2419-.4043-.3675-.1341-.1218-.2618-.2515-.3878-.3817-.2548-.2566-.4944-.5282-.7251-.8045a8.6853,8.6853,0,0,1-.64-.8708c.6417.3223,1.2744.62,1.9071.8976l.4745.2016c.1567.0679.3154.1306.4742.1914.3158.1238.6291.2454.9466.3483l.2351.0816.2362.0745c.1566.0511.3133.0988.4713.1389.3129.09.6261.1632.9351.23.1552.0284.3091.063.4623.0874l.4574.0666.4507.0415c.1492.01.2959.01.4422.0166l.1094.0041.1079-.0052.2144-.0082a3.1725,3.1725,0,0,0,.4193-.0355l.206-.0215c.0673-.0114.1333-.0271.2-.04a3.2281,3.2281,0,0,0,.3907-.0887c.1254-.0411.2553-.0649.3756-.1147s.2406-.0956.3608-.14c.1149-.0593.228-.12.3427-.176.0286-.0143.0578-.0267.0859-.0422l.0812-.0533.1628-.1044.1632-.1019.1543-.1223.1554-.12a1.1142,1.1142,0,0,0,.1519-.1264c.0962-.0943.1952-.1844.2941-.2744a1.1889,1.1889,0,0,0,.1418-.1473l.1376-.1552a7.0436,7.0436,0,0,0,.5324-.6567,3.8753,3.8753,0,0,0,.2471-.3605l.2429-.3683.0011-.0017a1.74,1.74,0,0,1,2.41-.4948,1.7759,1.7759,0,0,1,.496.4965l.2424.3686a4.2285,4.2285,0,0,0,.2465.361,7.3227,7.3227,0,0,0,.5318.6574l.1377.1552a1.1842,1.1842,0,0,0,.1419.1475q.1492.1341.2937.275a1.1157,1.1157,0,0,0,.1521.1264l.1554.12c.0518.04.1032.0809.1541.123l.1634.1019.1629.1044.0813.0533c.028.0156.0574.0278.0859.0424l.3429.1765c.12.0442.2408.09.3609.1409s.2505.0735.376.1146a3.1215,3.1215,0,0,0,.3911.0892c.0664.0126.1324.0283.2.04l.2061.0219a3.1816,3.1816,0,0,0,.42.0352c.1429,0,.2852.0218.4321.01.1463-.0075.2932-.006.4425-.0165l.4509-.0415.4576-.0669c.1533-.0244.3074-.0587.4626-.0875.3092-.0662.6221-.14.9354-.23.158-.04.3147-.0881.4712-.1394l.2362-.0747.2353-.0815c.3175-.1031.63-.2254.9465-.349.1587-.0609.3173-.1238.4739-.1919.1575-.0665.3166-.1323.4744-.202C262.74,265.0883,263.3724,264.7893,264.0134,264.4661Z"/><path class="cls-4" d="M248.0889,264.4661l1.701-9.845,1.7009,9.845a1.7262,1.7262,0,0,1-3.4019.5878A1.7676,1.7676,0,0,1,248.0889,264.4661Z"/><path class="cls-4" d="M345.4759,278.1835c6.3782-29.9238-9.7472-27.15-9.7472-27.15-6.6571-7.8244-13.2-3.1572-13.2-3.1572-9.9454-5.4908-14.76,3.569-14.76,3.569-14.5946-2.1974-6.2918,26.7386-6.2918,26.7386"/><path class="cls-4" d="M345.4776,279.8848a1.7028,1.7028,0,0,1-1.6653-2.056c3.05-14.3089.7474-20.3745-1.7213-22.9431a7.33,7.33,0,0,0-6.074-2.1763,1.7,1.7,0,0,1-1.5838-.574c-2.3882-2.8071-4.9694-4.1253-7.6711-3.9192a7.1349,7.1349,0,0,0-3.2456,1.0444,1.7005,1.7005,0,0,1-1.81.1043c-2.6946-1.4874-5.1791-1.9094-7.385-1.2537a9.5138,9.5138,0,0,0-5.05,4.1319,1.7015,1.7015,0,0,1-1.7554.8838c-2.09-.3142-3.6164.1113-4.6632,1.3033-3.9648,4.5146-1.1566,18.3388.26,23.2845a1.7009,1.7009,0,0,1-3.27.9378,73.9059,73.9059,0,0,1-2.05-10.3734c-.9328-7.7233-.0908-13.1376,2.5029-16.0923a7.768,7.768,0,0,1,6.6086-2.5414,12.5541,12.5541,0,0,1,6.4484-4.7951,12.3614,12.3614,0,0,1,9.1348,1.0867,10.85,10.85,0,0,1,4.0155-1.1127c2.5131-.1924,6.2244.4493,9.9353,4.4466a10.7478,10.7478,0,0,1,8.106,3.2575c4.4206,4.6,5.2939,13.3506,2.5957,26.01A1.7018,1.7018,0,0,1,345.4776,279.8848Z"/><path class="cls-2" d="M310.6918,273.1533c0-3.5634,5.5316-8.8223,12.3552-8.8223s12.3553,5.2589,12.3553,8.8223-5.5317,5.1353-12.3553,5.1353S310.6918,276.7166,310.6918,273.1533Z"/><path class="cls-4" d="M371.414,279.8844H127.586a1.701,1.701,0,1,1,0-3.4019H371.414a1.701,1.701,0,1,1,0,3.4019Z"/><circle cx="272.5224" cy="240.9116" r="4.9472"/><circle class="cls-2" cx="273.9516" cy="238.7187" r="1.3134"/><circle cx="227.0594" cy="240.9116" r="4.9472"/><circle class="cls-2" cx="228.4885" cy="238.7187" r="1.3134"/><path class="cls-4" d="M198.9643,263.7044s6.4563,15.3312-7.1536,15.3312c0,0-4.8142,8.5751-14.76,3.3781,0,0-6.543,4.4174-13.2-2.9883,0,0-15.5331,4.0277-9.9116-17.8S196.65,249.4126,198.9643,263.7044Z"/><path class="cls-4" d="M183.16,285.7869a14.4141,14.4141,0,0,1-6.0665-1.4559,11.2013,11.2013,0,0,1-4.8162,1.0909c-2.2788,0-5.6355-.7419-9.0243-4.1532a14.39,14.39,0,0,1-2.0694.15,9.5465,9.5465,0,0,1-7.8983-3.4952c-2.64-3.4054-2.9736-9.0317-.993-16.7224a17.366,17.366,0,0,1,7.9364-10.9184,24.5311,24.5311,0,0,1,12.7474-3.2055,37.6211,37.6211,0,0,1,17.73,4.5869c5.6075,3.1166,9.1161,7.2194,9.9041,11.5716.5221,1.3219,3.2431,8.8.0467,13.6144-1.5823,2.3833-4.2446,3.6808-7.9214,3.8638a11.9578,11.9578,0,0,1-9.5737,5.0727Zm-6.1088-5.0741a1.6982,1.6982,0,0,1,.7876.1934,11.6036,11.6036,0,0,0,5.3212,1.4789h.001a8.7336,8.7336,0,0,0,7.1707-4.19,1.6878,1.6878,0,0,1,1.479-.8607c2.9438,0,4.9654-.7944,6.0085-2.3614,2.0224-3.0378.38-8.6893-.4233-10.6106a1.7194,1.7194,0,0,1-.1107-.3864c-.5386-3.3263-3.5391-6.73-8.2323-9.3384a34.1128,34.1128,0,0,0-16.0768-4.1585c-5.3815,0-14.7966,1.5031-17.3894,11.57-1.6808,6.5261-1.5468,11.2945.3873,13.79a6.2042,6.2042,0,0,0,5.21,2.1774,10.1647,10.1647,0,0,0,2.2407-.2382,1.7024,1.7024,0,0,1,1.6918.5094c2.226,2.4764,4.6353,3.7319,7.1609,3.7317a7.57,7.57,0,0,0,3.8225-1.0163A1.7007,1.7007,0,0,1,177.0512,280.7128Z"/><ellipse class="cls-2" cx="316.2684" cy="255.8247" rx="2.8349" ry="3.2352"/><ellipse class="cls-2" cx="327.5036" cy="255.8247" rx="2.8349" ry="3.2352"/><ellipse class="cls-2" cx="337.284" cy="262.1462" rx="2.8349" ry="3.2352"/><ellipse class="cls-2" cx="306.6297" cy="262.1462" rx="2.8349" ry="3.2352"/><path d="M165.5156,302.6348c0-8.2666,1.9541-10.6719,9.6192-10.6719h4.3589c7.59,0,9.6191,2.4053,9.6191,10.6719v32.0136c0,8.2657-2.0293,10.6719-9.6191,10.6719h-4.3589c-7.6651,0-9.6192-2.4062-9.6192-10.6719Zm15.1055,1.1269c0-2.9306-.2256-3.832-2.7056-3.832h-1.2026c-2.48,0-2.7051.9014-2.7051,3.832v29.76c0,2.9306.2251,3.832,2.7051,3.832h1.2026c2.48,0,2.7056-.9014,2.7056-3.832Z"/><path d="M193.6992,292.34h13.7525c7.59,0,9.5439,2.4043,9.5439,10.67V315.335c0,8.1914-1.9541,10.6709-9.5439,10.6709h-5.2608v18.9375h-8.4917Zm12.0991,25.7012c2.48,0,2.78-.9775,2.78-3.834V304.1377c0-2.9307-.3-3.833-2.78-3.833h-3.6074V318.041Z"/><path d="M223.9858,344.9434V300.2305H218.35V292.34h19.7642v7.8907h-5.6363v44.7129Z"/><path d="M240.82,292.34h8.4922v52.6036H240.82Z"/><path d="M273.7354,344.9434h-7.0635l-3.9082-27.7295c-.376-2.8565-.9014-7.2139-1.3526-10.7471.0752,3.3828.15,7.5908.15,10.7471v27.7295h-7.3652V292.34h12.5508l3.0058,25.1c.3008,2.5546.5254,5.4853.751,8.416.15-2.9307.3008-5.8614.6016-8.416l3.0058-25.1h13.001v52.6036h-8.2666V317.2139c0-3.1563.0752-7.2139.15-10.5967-.5264,3.5322-.9014,7.8164-1.2773,10.5967Z"/><path d="M305.9033,337.5039h-7.29l-.9014,7.44h-7.59L296.96,292.34h11.6484l6.7637,52.6036H306.88Zm-6.2373-7.5146h5.26l-.15-1.5782c-1.127-11.7236-2.0283-21.3427-2.4795-29.459-.5264,8.1163-1.3525,17.7354-2.48,29.459Z"/><path d="M318.5293,292.34h8.4922v44.6387h8.2666v7.9649H318.5293Z"/><path d="M196.063,366.01v-13.461h7.3662v1.2188h-6.02v4.84h5.82v1.2168h-5.82v4.9668h6.02V366.01Z"/><path d="M217.5249,366.01l-3.7832-5.7481-3.8374,5.7481h-1.5825l4.5654-6.875-4.3105-6.586h1.582l3.583,5.3848,3.5469-5.3848h1.5644l-4.3291,6.586,4.6016,6.875Z"/><path d="M226.0918,366.01V353.7676H223v-1.2188h7.5122v1.2188H227.438V366.01Z"/><path d="M235.5493,366.01v-13.461h7.3662v1.2188h-6.02v4.84h5.82v1.2168h-5.82v4.9668h6.02V366.01Z"/><path d="M256.1748,366.01l-4.5654-6.0938h1.31c2.3829,0,3.8008-1.2187,3.8008-3.0547,0-1.2734-.7822-3.0937-3.874-3.0937h-2.564V366.01H248.936v-13.461h4.0552c3.5108,0,5.0742,2.0742,5.0742,4.3477a4.11,4.11,0,0,1-4.0009,4.0918l3.8017,5.0215Z"/><path d="M263.7217,366.01v-13.461h1.3467V366.01Z"/><path d="M277.9824,366.2461a6.9687,6.9687,0,1,1,7.13-6.9668A7.1,7.1,0,0,1,277.9824,366.2461Zm-.0176-12.7149a5.7482,5.7482,0,1,0,5.8018,5.7657A5.8352,5.8352,0,0,0,277.9648,353.5312Z"/><path d="M298.0439,366.01l-4.5654-6.0938h1.31c2.3828,0,3.8008-1.2187,3.8008-3.0547,0-1.2734-.7823-3.0937-3.8741-3.0937H292.15V366.01h-1.3457v-13.461H294.86c3.5107,0,5.0742,2.0742,5.0742,4.3477a4.11,4.11,0,0,1-4.001,4.0918l3.8018,5.0215Z"/><path d="M32.459,225.8936a8.4465,8.4465,0,1,1-7.5811-9.47A8.4777,8.4777,0,0,1,32.459,225.8936Zm-7.6836-7.0914a6.0945,6.0945,0,1,0-1.4194,12.1016,6.0951,6.0951,0,1,0,1.4194-12.1016Z"/><path d="M33.4614,215.51l-16.0224-2.857.83-4.6553c.6137-3.4428,2.7143-5.3247,5.854-4.7646s4.4677,3.0083,3.85,6.4727l-.417,2.3383,6.3227,1.1275Zm-7.6362-6.1651c.3667-2.0566-.3872-3.4648-2.12-3.7734-1.7539-.313-2.9341.7949-3.2974,2.83l-.4092,2.2954,5.4131.9648Z"/><path d="M36.0708,201.9419l-13.752-3.13-.6933,3.0464-2.124-.4834,1.914-8.41,2.1241.4834-.6934,3.0464,13.7519,3.13Z"/><path d="M37.7275,195.0088l-15.7519-4.1323.6035-2.2989L38.3306,192.71Z"/><path d="M43.5508,175.7236l-13.0747-4.2627-.02.063,11.3764,9.4717-.4433,1.36-14.78.9668-.0137.042L39.67,187.6274l-.7363,2.2593-15.481-5.0473,1.16-3.5567,13.3755-.7768-10.34-8.5323,1.16-3.5566,15.4805,5.0474Z"/><path d="M49.4341,161.1187l-5.1216-.1807L42.06,166.34l3.7334,3.5118-.9659,2.3149L32.1782,160.1934l.8213-1.97,17.4087.56Zm-13.9893-.7554-.0171.041,4.9434,4.3257,1.6172-3.8789Z"/><path d="M51.1841,157.3242l-14.6563-7.08,1.0332-2.1391,12.6953,6.1328,2.459-5.09,1.961.9472Z"/><path d="M63.7007,134.209l-11.2656-3.3521-.023.0376,8.2192,8.4024-1.08,1.7905-16.2984-4.5117,1.2735-2.11L56.626,138.14l.0229-.0376-8.8711-9.0268.898-1.4888L60.7,131.2163l.023-.0376-8.7842-9,1.2505-2.0732,11.5918,12.313Z"/><path d="M68.2207,127.2715,54.7837,118.08l1.3413-1.961,13.437,9.1914Z"/><path d="M77.5142,114.4751,62.627,113.2983l-.0264.0352,10.0283,7.5933L71.1953,122.82l-12.9741-9.8237,1.5669-2.0689L74.4375,112.09l.0269-.0351-9.8711-7.4741,1.434-1.8936,12.9737,9.8237Z"/><path d="M80.6377,110.4956l-12.24-10.727,3.7255-4.251A7.852,7.852,0,0,1,83.4761,94.91c3.7383,3.2758,4.0468,7.7285.6548,11.5991Zm1.7978-5.355c2.4791-2.8286,2.3033-5.9653-.4921-8.415a5.7109,5.7109,0,0,0-8.4.4756l-1.9424,2.2163,8.9648,7.8569Z"/><path d="M96.7144,93.5708A8.45,8.45,0,1,1,96.87,81.437,8.4807,8.4807,0,0,1,96.7144,93.5708ZM95.2808,83.21a6.0975,6.0975,0,1,0,.0034,8.7124A6.15,6.15,0,0,0,95.2808,83.21Z"/><path d="M112.2983,79.269l-9.5351-6.8735-.0337.0278,4.9961,10.64-1.6094,1.3349L92.2109,74.7739,94.1079,73.2l10.2158,7.4526.0337-.0283L98.9521,69.1807l1.3379-1.11,10.16,7.3848.0337-.0279-5.3325-11.39,1.8633-1.5459,6.8935,15.4424Z"/><path d="M134.0278,58.9453a8.32,8.32,0,0,1-3.9077,7.7554,8.5258,8.5258,0,0,1-11.4809-2.4854,8.4258,8.4258,0,0,1,11.0332-12.0966l-2.39,1.5712a5.8059,5.8059,0,0,0-5.0815.6011,6.1321,6.1321,0,0,0-1.6968,8.4351c1.8731,2.85,5.68,3.9551,8.4751,2.1181a5.8277,5.8277,0,0,0,2.603-4.2915Z"/><path d="M137.99,61.3984l-8.1186-14.1142,2.06-1.1851,7.0322,12.2261,4.9018-2.8193,1.0865,1.8881Z"/><path d="M145.9526,56.8677l-7.4409-14.4868,7.8111-4.0122.9956,1.9379-5.6968,2.9263,2.1919,4.2681,5.6968-2.9263.9956,1.938-5.6968,2.9263,2.2622,4.4048,5.6973-2.9263.9951,1.938Z"/><path d="M165.6885,47.47l-3.5864-3.66-5.3536,2.3623.2857,5.1157L154.74,52.3008l-.916-17.3892,1.9522-.8613,12.227,12.3979Zm-9.6153-10.1845-.0405.018.6016,6.5391,3.8437-1.6958Z"/><path d="M179.2437,42.3823l-11.8379-9.1186-.0415.0151,4.2592,11.8438-2.2363.8042-5.51-15.3223,2.4433-.8789,11.6465,8.977.0415-.0151L173.8159,27.03l2.2363-.8042,5.51,15.3222Z"/><path d="M184.4229,40.7314l-4.754-15.5708,2.273-.6938,4.7534,15.5708Z"/><path d="M199.6763,36.5513l-10.8887-10.23-.0425.0107,3.0811,12.2017-2.3037.582L185.5361,23.33l2.5176-.6358,10.7119,10.0708.0425-.0107-3.0327-12.01,2.3042-.5815,3.9858,15.7852Z"/><path d="M209.335,28.5454l-.3687-2.1465,10.148-1.7427a8.3743,8.3743,0,1,1-9.8936-6.9174,8.2562,8.2562,0,0,1,8.0952,3.0742l-2.7324.4692a5.6565,5.6565,0,0,0-4.8857-1.4155,6.2793,6.2793,0,0,0,2.2089,12.3442,5.9175,5.9175,0,0,0,4.9087-4.95Z"/><path d="M233.8164,19.3452a2.1781,2.1781,0,0,0-2.4614-2.1733,2.2675,2.2675,0,0,0-2.0029,2.3823c.0874,1.1411.9057,1.7407,2.5244,2.1245,3.5962.8506,4.9917,2.0679,5.2065,4.8765a4.7551,4.7551,0,0,1-4.605,5.2964,4.8841,4.8841,0,0,1-5.394-4.73l2.37-.1812a2.6685,2.6685,0,0,0,2.8579,2.7388,2.5548,2.5548,0,0,0,2.4014-2.9429c-.09-1.1845-.6743-1.8906-2.4531-2.35-4.1192-1.0532-5.0977-2.3027-5.274-4.6069A4.4851,4.4851,0,0,1,231.189,15a4.3654,4.3654,0,0,1,4.9975,4.1641Z"/><path d="M239.0977,31.0908,238.646,14.82l8.7729-.2436.0606,2.1767-6.3984.1778.1333,4.7934,6.3984-.1777.06,2.1767-6.3985.1778.1377,4.9472,6.3984-.1777.0606,2.1768Z"/><path d="M257.9424,31.0317l-5.1709-7.6792-.0449-.0014-.1934,7.542-2.3745-.0611.4175-16.271,5.2119.1338c3.9131.1006,5.5976,2.2119,5.5117,5.5542a4.6634,4.6634,0,0,1-4.7852,4.6739l4.3965,6.1855Zm-3.47-7.9658c2.77.0713,4.4033-.9648,4.457-3.0757.0478-1.8691-1.417-3.0727-3.5274-3.1269l-2.5068-.0645-.16,6.2227Z"/><path d="M267.9775,31.6592,262.8594,14.876l2.541.2217,3.6523,12.5708,5.77-11.751,2.498.2173-7.9189,15.6484Z"/><path d="M277.5029,32.6606l2.1446-16.1352,2.3554.313-2.1455,16.1357Z"/><path d="M298.2178,32.06a8.32,8.32,0,0,1-8.19,2.89,8.5273,8.5273,0,0,1-6.5634-9.7441,8.4272,8.4272,0,0,1,16.3388-1.0879l-2.8125-.522a5.8083,5.8083,0,0,0-4.084-3.0849,6.1328,6.1328,0,0,0-7.0654,4.9116c-.622,3.354,1.3594,6.7876,4.6485,7.3974a5.8289,5.8289,0,0,0,4.8505-1.2934Z"/><path d="M299.0479,36.481l3.9853-15.7857,8.5117,2.1494-.5332,2.1118-6.208-1.5673L303.63,28.04l6.208,1.5673-.5332,2.1119-6.208-1.5674-1.2119,4.7993,6.208,1.5674-.5342,2.1118Z"/><path d="M319.3418,29.5884a2.1769,2.1769,0,0,0-1.4961-2.9209,2.2655,2.2655,0,0,0-2.7334,1.4848c-.3359,1.0933.2061,1.95,1.5723,2.8985,3.0342,2.105,3.8877,3.7471,3.0615,6.4385a4.7518,4.7518,0,0,1-6.2188,3.2451,4.8812,4.8812,0,0,1-3.29-6.3711l2.27.6972a2.6666,2.6666,0,0,0,1.6582,3.5918,2.5537,2.5537,0,0,0,3.31-1.86c.3486-1.1358.0635-2.0054-1.4238-3.083-3.4473-2.4849-3.9014-4.0044-3.2237-6.2124a4.4834,4.4834,0,0,1,5.6563-2.9112,4.3625,4.3625,0,0,1,3.1279,5.7Z"/><path d="M320.4873,42.665l.8848-2.5332,2.1591.7535-.8837,2.5336Zm1.3193-3.7793,4.044-11.5883,2.16.7539-4.0439,11.5879Z"/><path d="M326.0693,44.666l.9532-2.5093,2.14.8125-.9531,2.5093Zm1.4219-3.7436,4.3594-11.4771,2.14.8125-4.3593,11.4771Z"/><path d="M331.5811,46.8145l1.0224-2.4815,2.1153.8711-1.0225,2.4814Zm1.5244-3.7022,4.6748-11.35,2.1152.8711-4.6748,11.35Z"/><path d="M348.9766,55.1235A8.4523,8.4523,0,1,1,360.543,51.44,8.4839,8.4839,0,0,1,348.9766,55.1235Zm9.3818-4.6328a6.0991,6.0991,0,1,0-8.2686,2.7549A6.1517,6.1517,0,0,0,358.3584,50.4907Z"/><path d="M358.293,59.7778l8.4121-13.9336,4.0488,2.4439c2.9941,1.8076,3.9971,4.4433,2.3486,7.1738s-4.41,3.0923-7.4228,1.2735l-2.0332-1.2281-3.3194,5.4986Zm8.4931-4.9179c1.7891,1.08,3.3741.88,4.2832-.626.9209-1.5249.3106-3.0244-1.46-4.0928l-1.9961-1.2051-2.8418,4.7076Z"/><path d="M370.0361,67.0879l7.8545-11.7173-2.5957-1.74,1.2129-1.81,7.1651,4.8032-1.2129,1.81-2.5957-1.74-7.8536,11.7173Z"/><path d="M375.918,71.1226,385.4141,57.9l1.93,1.3857-9.4961,13.2222Z"/><path d="M391.8438,83.459l8.6494-10.6817-.0508-.0415-12.9053,7.2354-1.1113-.8994,4.3779-14.1411-.0342-.0279-8.65,10.6812-1.8457-1.4946,10.2422-12.6465,2.9053,2.3525-4.0537,12.7627,11.6582-6.604,2.9053,2.353L393.69,84.9536Z"/><path d="M403.4033,94.1733l1.9951-4.7216-4.2461-4.03-4.6113,2.2368-1.82-1.7275,15.6982-7.5533,1.5479,1.47L405.2393,95.916ZM409.0957,81.37l-.0322-.03-5.8047,3.0776,3.0488,2.894Z"/><path d="M406.3223,97.16l11.8339-11.1783,1.6309,1.7266-10.25,9.6831,3.8818,4.11-1.583,1.4956Z"/><path d="M423.4805,117.0771l7.1338-9.3417-.0274-.0347-10.7734,4.7-1.29-1.645,10.0049-13.6348,1.5205,1.94-7.7314,10.0059.0273.0347,11.5889-5.0874,1.0723,1.3681-7.6621,9.9517.0273.0347,11.5322-5.0162,1.4942,1.9053-15.627,6.4644Z"/><path d="M428.3574,123.76l13.3574-9.3042,1.3584,1.9492L429.7148,125.71Z"/><path d="M437.0244,136.9932l6.3877-13.51-.0234-.0371-10.666,6.6855-1.2618-2.0136,13.7979-8.6494,1.3789,2.2-6.29,13.2934.0234.0371,10.498-6.5805,1.2627,2.0141-13.7988,8.6489Z"/><path d="M439.65,141.3535l14.3848-7.6333,2.6513,4.9961a7.8572,7.8572,0,0,1-3.47,10.8345c-4.3926,2.331-8.667,1.0366-11.0811-3.5122Zm4.3691,3.586c1.7637,3.3242,4.76,4.2753,8.045,2.5322a5.7148,5.7148,0,0,0,2.5429-8.0259l-1.3828-2.605-10.5361,5.5908Z"/><path d="M449.7246,162.3711a8.448,8.448,0,1,1,11.2774,4.4741A8.4793,8.4793,0,0,1,449.7246,162.3711Zm10.19,2.3569a6.0964,6.0964,0,1,0-8.14-3.1045A6.1482,6.1482,0,0,0,459.9141,164.728Z"/><path d="M457.5264,182.0332l9.8213-6.4434-.0137-.0419-11.7149.8618-.6718-1.979,13.9511-9.5391.7911,2.3325-10.6055,6.8721.0146.0415,12.6114-.9565.5576,1.6455L461.7461,181.67l.0137.042,12.5361-.9077.7764,2.291-16.875.9165Z"/><path d="M468.7227,209.583a8.3214,8.3214,0,0,1-5.8418-6.4268,8.5274,8.5274,0,0,1,6.4336-9.8315,8.4274,8.4274,0,0,1,7.3437,14.6362l-.61-2.7949a5.8069,5.8069,0,0,0,1.2578-4.96,6.1325,6.1325,0,0,0-7.2686-4.606c-3.333.7285-5.7285,3.8877-5.0137,7.1558a5.8287,5.8287,0,0,0,3.0743,3.9682Z"/><path d="M465,212.3984l16.0908-2.5068.3653,2.3486-13.9375,2.1714.87,5.5879-2.1524.3355Z"/><path d="M466.3721,221.4609l16.1806-1.7505.9444,8.7247-2.1651.2343-.6884-6.3632-4.7666.5156.6884,6.3633-2.165.2338-.6875-6.3627-4.92.5322.6875,6.3628-2.1641.2343Z"/><path d="M468.0742,243.2642l4.7012-2.0381-.2881-5.8448-4.8789-1.5654-.124-2.5049,16.5644,5.3726.1055,2.1313-15.9551,6.9761Zm12.9531-5.33-.0029-.044-6.32-1.7807.2061,4.1968Z"/><path d="M467.9951,257.6162l12.7363-7.8174.001-.0439-12.5859-.2359.0439-2.3759,16.2823.3047-.0479,2.5961-12.5361,7.69-.001.0439,12.3877.2325-.0449,2.3759-16.2823-.3046Z"/><path d="M467.7021,263.0371,483.95,264.11l-.1563,2.371-16.249-1.0722Z"/><path d="M466.2051,278.7734l13.4209-6.5576.0049-.0439-12.4991-1.44.2725-2.36,16.1689,1.8633-.2968,2.5781-13.208,6.4492-.0049.043,12.3017,1.4179-.2724,2.3594-16.169-1.8623Z"/><path d="M470.2734,290.6631l2.1377.414-1.956,10.1045a8.3713,8.3713,0,1,1,9.9638-6.8066,8.2522,8.2522,0,0,1-5.7353,6.4834l.5273-2.7207a5.6569,5.6569,0,0,0,3.05-4.0693,6.2768,6.2768,0,0,0-12.3232-2.2959,5.9175,5.9175,0,0,0,2.8936,6.34Z"/><path d="M470.2031,316.8a2.1779,2.1779,0,0,0,2.9043-1.53,2.2661,2.2661,0,0,0-1.5166-2.7158c-1.0976-.3232-1.9482.23-2.8808,1.6055-2.0694,3.06-3.7022,3.9326-6.4034,3.1377a4.7525,4.7525,0,0,1-3.3173-6.1817,4.881,4.881,0,0,1,6.333-3.3642l-.6709,2.2783a2.6681,2.6681,0,0,0-3.5733,1.7,2.5546,2.5546,0,0,0,1.8994,3.2881c1.14.3349,2.0059.04,3.0664-1.46,2.4444-3.4765,3.959-3.9482,6.1749-3.2959a4.4841,4.4841,0,0,1,2.9775,5.6231,4.3641,4.3641,0,0,1-5.6641,3.1943Z"/><path d="M457.35,317.5869l15.3672,5.375-2.8975,8.2861-2.0566-.7187,2.1143-6.0439-4.5274-1.5831-2.1142,6.043-2.0557-.7187,2.1133-6.043-4.6719-1.6348-2.1143,6.044-2.0556-.72Z"/><path d="M450.6875,335.2266l9.0205-2.09.0166-.04-6.9766-2.874.9043-2.1963,15.0518,6.1992-1.9853,4.82c-1.4913,3.62-4.0645,4.44-7.1563,3.167a4.6631,4.6631,0,0,1-2.6582-6.1387l-7.3477,1.8985Zm8.6807-.3975c-1.0557,2.5625-.6709,4.458,1.2822,5.2617,1.7285.7119,3.376-.2265,4.1807-2.18l.955-2.3183-5.7568-2.3711Z"/><path d="M446.51,344.375l17.5029,1.2324-1.1172,2.294L449.85,346.81l8.9053,9.5947-1.0967,2.2549-11.7744-12.9981Z"/><path d="M442.16,352.91l14.2959,7.791-1.1377,2.0859-14.295-7.791Z"/><path d="M435.3066,372.4541a8.3135,8.3135,0,0,1,.2354-8.6768,8.5209,8.5209,0,0,1,11.4414-2.6357,8.4218,8.4218,0,0,1-4.833,15.6348l1.4932-2.4375a5.8057,5.8057,0,0,0,4.3408-2.7061,6.13,6.13,0,0,0-2.0537-8.3516c-2.9073-1.78-6.82-1.16-8.5664,1.69a5.8251,5.8251,0,0,0-.5293,4.9893Z"/><path d="M430.874,371.6572l13.3125,9.3721-5.0527,7.1787-1.7813-1.2539,3.6856-5.2353-3.9219-2.7608-3.6855,5.2354-1.7813-1.2539,3.6856-5.2354-4.0479-2.85-3.6855,5.2353-1.7813-1.2539Z"/><path d="M430.0615,393.0654a2.1766,2.1766,0,0,0,3.2627-.3545,2.2648,2.2648,0,0,0-.4111-3.083c-.9014-.7031-1.8945-.5029-3.2686.4336-3.0488,2.084-4.8877,2.294-7.1064.5615a4.7524,4.7524,0,0,1-.8106-6.9668,4.8807,4.8807,0,0,1,7.125-.7978l-1.4619,1.8721a2.6667,2.6667,0,0,0-3.9472.2666A2.5521,2.5521,0,0,0,424,388.751c.9355.7314,1.85.7754,3.3877-.2285,3.5508-2.333,5.1328-2.2149,6.9521-.793a4.4814,4.4814,0,0,1,.7,6.3213,4.3621,4.3621,0,0,1-6.44.8867Z"/><path d="M417.4307,389.4775l2.0517,1.7295-1.4746,1.7491-2.0508-1.7295Zm3.06,2.58,9.3828,7.91-1.4746,1.748-9.3828-7.9092Z"/><path d="M413.585,393.9619l2.0048,1.7852-1.5214,1.709-2.0049-1.7852Zm2.9912,2.6631,9.17,8.165-1.5215,1.71-9.17-8.166Z"/><path d="M409.5938,398.37l1.957,1.8369-1.5664,1.668-1.9571-1.8369Zm2.9189,2.74,8.9482,8.4042-1.5654,1.668-8.9492-8.4043Z"/><path d="M395.6484,411.666a8.4479,8.4479,0,1,1-.6621,12.1152A8.478,8.478,0,0,1,395.6484,411.666Zm1,10.41a6.0964,6.0964,0,1,0,.3594-8.7041A6.1477,6.1477,0,0,0,396.6484,422.0762Z"/><path d="M387.9766,418.7334l10.05,12.8154-3.7237,2.92c-2.7539,2.1591-5.5761,2.163-7.5449-.3487s-1.3271-5.2236,1.4434-7.3965l1.8711-1.4668L386.1064,420.2Zm1.5869,9.6914c-1.6455,1.29-2.0215,2.8438-.9356,4.2285,1.1006,1.4033,2.72,1.3643,4.3477.0879l1.8359-1.4394-3.3955-4.33Z"/><path d="M376.9814,427.1162l8.167,11.4922,2.5469-1.8086,1.2608,1.7744-7.0284,4.9951-1.2607-1.7754,2.5459-1.81-8.167-11.4922Z"/><path d="M371.1387,431.1768l9,13.5722-1.9815,1.3135-8.999-13.5723Z"/><path d="M353.9336,441.709l6.9228,11.8818.0577-.0332-2.19-14.6406,1.2354-.72,11.6767,9.1132.0381-.0224-6.9238-11.8828,2.0537-1.1963,8.1973,14.0693-3.2315,1.8828-10.5019-8.32,2.041,13.25-3.2325,1.8838L351.88,442.9053Z"/><path d="M339.82,448.7051l3.7041,3.539,5.2725-2.5361-.4541-5.1035,2.26-1.0869,1.4873,17.3476-1.9228.9248-12.626-11.9873Zm9.9434,9.8613.04-.0185-.8164-6.5157-3.7852,1.8213Z"/><path d="M335.9971,450.3613l6.2324,15.041-2.1943.9092-5.3995-13.0283-5.2236,2.165-.834-2.0127Z"/><path d="M311.2725,459.29l6.1777,10,.042-.0136-.543-11.7412,1.9981-.6182,9.1621,14.2148-2.3545.7276-6.586-10.7949-.0419.0126.6142,12.6417-1.6611.5136-6.56-10.7119-.042.0137.5664,12.5635-2.3125.7148-.458-16.9053Z"/><path d="M303.2822,461.4531l3.9073,15.8086-2.3067.57-3.9072-15.8086Z"/><path d="M287.8535,464.7959l10.3194,10.8027.0439-.0078-2.418-12.3506,2.3321-.456,3.1279,15.9775-2.5479.4981L288.5586,468.626l-.044.0078,2.38,12.1562-2.332.4561L285.4346,465.27Z"/><path d="M282.8506,465.6885l1.9756,16.1582-5.6114.6855a7.8532,7.8532,0,0,1-8.871-7.1142c-.6036-4.9356,2.1347-8.461,7.2441-9.086Zm-4.9111,2.7939c-3.7334.4571-5.6934,2.9131-5.2422,6.6035a5.7116,5.7116,0,0,0,6.58,5.2452l2.9268-.3584-1.4473-11.834Z"/><path d="M259.5957,467.5762a8.447,8.447,0,1,1-8.2051,8.9345A8.4776,8.4776,0,0,1,259.5957,467.5762Zm-5.8389,8.6738a6.0956,6.0956,0,1,0,5.8057-6.4932A6.1469,6.1469,0,0,0,253.7568,476.25Z"/><path d="M238.4619,467.8584l2.5361,11.4746.044.001,3.3564-11.2608,2.0889.0752,3.9644,16.4356-2.4624-.0889-2.6587-12.3594-.044-.0019-3.5859,12.1338-1.7373-.0625-2.6616-12.2715-.044-.001-3.605,12.0449-2.4184-.0879,5.1386-16.1064Z"/><path d="M208.7153,468.5576a8.3173,8.3173,0,0,1,8.0762-3.1855,8.5235,8.5235,0,0,1,6.9111,9.4941,8.4235,8.4235,0,0,1-16.2807,1.6826l2.8286.418a5.804,5.804,0,0,0,4.1909,2.9326,6.13,6.13,0,0,0,6.8789-5.1631c.499-3.373-1.6055-6.73-4.9131-7.22a5.8263,5.8263,0,0,0-4.7978,1.4688Z"/><path d="M207.3979,464.0879,204.0557,480.02l-2.3257-.4873,2.8955-13.8008-5.5332-1.1611.4468-2.1308Z"/><path d="M198.4521,462.165l-4.0986,15.752-8.4931-2.21.5483-2.1074,6.1943,1.6123,1.2075-4.6406-6.1943-1.6123.5484-2.1074,6.1943,1.6123,1.2461-4.7891-6.1944-1.6123.5484-2.1074Z"/><path d="M177.4707,456.0244l.2354,5.1172,5.5644,1.8066,3.1958-4.0039,2.3848.7745L177.9478,473.291l-2.0293-.6582-.8536-17.3887Zm.3818,13.9981.042.0136,3.9087-5.2754-3.9956-1.2968Z"/><path d="M163.9673,450.7891l2.7534,14.6855.041.0156,4.7129-11.6689,2.2031.89-6.0971,15.0967-2.4073-.9717-2.7055-14.4521-.0406-.0166-4.6391,11.4853-2.2031-.89,6.0971-15.0967Z"/><path d="M159.0068,448.5674l-6.8315,14.78-2.1567-.9971,6.831-14.78Z"/><path d="M144.86,441.5312l1.3071,14.8848.0391.0205,5.83-11.1543,2.1065,1.1006L146.6,460.8135l-2.3008-1.2031-1.2817-14.6475-.0391-.02-5.7387,10.9785-2.106-1.1006,7.5425-14.4307Z"/><path d="M132.3,441.0615l-1.1538,1.8477-8.7339-5.4561a8.3756,8.3756,0,1,1,2.7783,11.75,8.2575,8.2575,0,0,1-3.9946-7.6845l2.3511,1.4687a5.66,5.66,0,0,0,2.7041,4.3106,6.2807,6.2807,0,0,0,6.57-10.6846,5.92,5.92,0,0,0-6.96.4267Z"/><path d="M107.9194,431.6289a2.1777,2.1777,0,0,0,.39,3.26,2.2662,2.2662,0,0,0,3.08-.4444c.6943-.9091.4829-1.9013-.4693-3.2646-2.1167-3.0274-2.3476-4.8643-.6387-7.1026a4.7534,4.7534,0,0,1,6.96-.8867,4.8823,4.8823,0,0,1,.876,7.1182l-1.8887-1.4414a2.6674,2.6674,0,0,0-.3091-3.9453,2.5537,2.5537,0,0,0-3.75.5967c-.7207.9443-.7549,1.8593.2656,3.3857,2.3726,3.5283,2.271,5.1113.8692,6.9473a4.4847,4.4847,0,0,1-6.3169.7685,4.3643,4.3643,0,0,1-.9566-6.4326Z"/><path d="M111.7925,419.35,101.291,431.7822,94.5879,426.12l1.4048-1.6631,4.8891,4.1289,3.0933-3.6621-4.8887-4.13,1.4048-1.663,4.8887,4.13,3.1933-3.78-4.8891-4.1289,1.4048-1.6641Z"/><path d="M97.6758,406.8076l-1.271,9.1729.0322.03,5.1763-5.49,1.7285,1.63-11.167,11.8447-3.7939-3.5771c-2.8492-2.6856-2.6949-5.3828-.4009-7.8155a4.6632,4.6632,0,0,1,6.6831-.29l.8515-7.542Zm-2.73,8.251c-2.0171-1.9014-3.9248-2.2188-5.3735-.6826-1.2828,1.36-.9942,3.2353.5424,4.6836L91.94,420.78l4.2705-4.53Z"/><path d="M90.623,399.6611,83.2441,415.585l-1.747-1.86,5.6621-11.8066L75.021,406.8291l-1.7168-1.8281,16.34-6.3819Z"/><path d="M84.1821,392.5508,71.8179,403.1416l-1.5459-1.8037,12.3642-10.5918Z"/><path d="M68.35,379.207a8.3182,8.3182,0,0,1,8.0322,3.3028,8.5263,8.5263,0,0,1-1.6,11.6386A8.4269,8.4269,0,0,1,61.875,384.0723l1.75,2.2636a5.8039,5.8039,0,0,0,.9883,5.0205,6.1336,6.1336,0,0,0,8.541,1.0469c2.6987-2.0859,3.5093-5.9668,1.4639-8.6133a5.8271,5.8271,0,0,0-4.4786-2.2675Z"/><path d="M70.6621,375.335,57.18,384.459l-4.919-7.2695,1.8038-1.2207,3.5874,5.3017,3.9721-2.6875-3.5879-5.3018,1.8037-1.2207,3.5879,5.3018,4.0992-2.7744-3.5879-5.3018,1.8037-1.22Z"/><path d="M60.8325,367.7266l-10.43,6.4795-1.2075-1.9444,10.43-6.48Zm3.4019-2.1133-2.28,1.416-1.208-1.9434,2.2808-1.417Z"/><path d="M57.7007,362.582,47.1,368.7725l-1.1538-1.9766,10.6006-6.19Zm3.457-2.0185L58.84,361.916,57.6865,359.94l2.3179-1.3535Z"/><path d="M54.7041,357.3506,43.9419,363.252l-1.1-2.0059,10.7622-5.9014Zm3.51-1.9238-2.3531,1.29-1.1-2.0059,2.353-1.29Z"/><path d="M49.8887,338.0332a8.45,8.45,0,1,1-11.3135-4.3906A8.4807,8.4807,0,0,1,49.8887,338.0332ZM39.68,335.752a6.098,6.098,0,1,0,8.164,3.0449A6.15,6.15,0,0,0,39.68,335.752Z"/><path d="M45.56,328.5527l-15.3,5.5557-1.6138-4.4453c-1.1939-3.2881-.3189-5.9688,2.6792-7.0576s5.3745.3652,6.5757,3.6728l.811,2.2334,6.0371-2.1924Zm-9.6983-1.51c-.7134-1.9649-2.0718-2.8047-3.7256-2.2051-1.6748.6084-2.1416,2.1592-1.436,4.1025l.7959,2.1914,5.1689-1.8769Z"/><path d="M41.021,315.5l-13.4683,4.1768.9253,2.9834-2.0805.6455-2.5537-8.2373,2.08-.6446.9253,2.9834,13.4683-4.1767Z"/><path d="M38.9824,308.667l-15.6953,4.3135-.6294-2.291,15.6948-4.3135Z"/><path d="M34.3643,289.07l-13.4468,2.8613.0137.0645,14.5864,2.4961.2978,1.3984-12.3022,8.24.0088.0429,13.4468-2.8613.4946,2.3242-15.9209,3.3867-.7783-3.6572,11.1826-7.3721-13.22-2.2021-.7784-3.6572L33.87,286.7471Z"/><path d="M32.1357,273.4648l-4.5229,2.4112.7593,5.8037,4.9907,1.167.3252,2.4883-16.9487-4.02-.2769-2.1163,15.3452-8.2431Zm-12.4843,6.3594.0058.044,6.4463,1.2646-.5449-4.167Z"/><path d="M31.7505,269.3037l-16.2368,1.22-.1783-2.37L29.4,267.0967l-.4233-5.6387,2.1723-.1631Z"/><path d="M31.0669,258.4375l-2.6826.0928-.0791-2.2862,2.6826-.0927Z"/><path d="M30.9155,252.459l-2.6841.043-.0366-2.2886,2.6846-.043Z"/><path d="M30.9058,246.5879l-2.6846-.0488.0415-2.2881,2.6841.0483Z"/></svg>