<svg id="Layer_1" data-name="Layer 1" xmlns="http://www.w3.org/2000/svg" width="93" height="93" viewBox="0 0 93 93"><defs><style>.cls-1{fill:#ffaf10;}</style></defs><circle class="cls-1" cx="46.5" cy="46.5" r="46.5"/><path d="M67.1436,68.0773H25.8564a.65.65,0,0,1-.65-.65V25.5723a.65.65,0,0,1,.65-.65h29.6a.65.65,0,0,1,0,1.2993h-28.95V66.778H66.4939V36.3038a.65.65,0,0,1,1.2993,0V67.4277A.65.65,0,0,1,67.1436,68.0773Z"/><path d="M63.87,64.9758H29.13a.65.65,0,0,1-.65-.65V28.6738a.65.65,0,0,1,.65-.65H46.05a.65.65,0,0,1,0,1.2993H29.78v34.353h33.441V42.0774a.65.65,0,0,1,1.2993,0V64.3262A.65.65,0,0,1,63.87,64.9758Z"/><path d="M49.22,55.1849a2.7335,2.7335,0,0,1-1.939-.8019l-7.7781-7.778a2.7456,2.7456,0,0,1,0-3.8782.65.65,0,0,1,.9188,0L51.159,53.4643a.6494.6494,0,0,1,0,.9187A2.7341,2.7341,0,0,1,49.22,55.1849ZM40.0715,44.2143a1.4448,1.4448,0,0,0,.35,1.472l7.778,7.778a1.4454,1.4454,0,0,0,1.472.35Z"/><path d="M34.9056,60.7427a1.6572,1.6572,0,0,1-1.1718-2.8291l8.9981-8.9981a.65.65,0,0,1,.9188,0L45.0756,50.34a.65.65,0,0,1,0,.9187l-8.9981,8.9982A1.6468,1.6468,0,0,1,34.9056,60.7427Zm8.2857-10.4492-8.5387,8.5388a.3579.3579,0,1,0,.5061.5062L43.6975,50.8Z"/><path d="M42.1783,42.1572a.65.65,0,0,1-.4041-1.1586A18.6526,18.6526,0,0,0,47.8,30.2554a.65.65,0,0,1,1.2835.2021,19.6311,19.6311,0,0,1-6.5023,11.5591A.6465.6465,0,0,1,42.1783,42.1572Z"/><path d="M52.3636,52.6385a.65.65,0,0,1-.3319-1.2086A17.5376,17.5376,0,0,0,55.83,48.0214,22.6436,22.6436,0,0,0,60.901,37.017a.65.65,0,0,1,1.281.2172,23.9326,23.9326,0,0,1-5.4038,11.6775,18.3852,18.3852,0,0,1-4.0843,3.6361A.6462.6462,0,0,1,52.3636,52.6385Z"/><path d="M61.1849,30.3574a.65.65,0,0,1-.65-.65v-.5651a.65.65,0,1,1,1.2993,0v.5651A.65.65,0,0,1,61.1849,30.3574Z"/><path d="M61.1849,34.2329a.65.65,0,0,1-.65-.65v-.5652a.65.65,0,1,1,1.2993,0v.5652A.65.65,0,0,1,61.1849,34.2329Z"/><path d="M59.53,32.0125h-.5651a.65.65,0,1,1,0-1.2992H59.53a.65.65,0,1,1,0,1.2992Z"/><path d="M63.4052,32.0125H62.84a.65.65,0,0,1,0-1.2992h.5652a.65.65,0,1,1,0,1.2992Z"/><circle cx="65.1026" cy="27.3341" r="0.8095"/></svg>